Mertz-Heavy.ufo
<glyph name="dollar" format="1">
  <advance width="956"/>
  <unicode hex="0024"/>
  <outline>
    <contour>
      <point x="585" y="1381" type="line"/>
      <point x="295" y="-168" type="line"/>
      <point x="411" y="-168" type="line"/>
      <point x="701" y="1381" type="line"/>
    </contour>
    <contour>
      <point x="87" y="70" type="line" smooth="yes"/>
      <point x="87" y="70"/>
      <point x="307.0" y="-33.0"/>
      <point x="556.0" y="-33.0" type="curve" smooth="yes"/>
      <point x="746.0" y="-33.0"/>
      <point x="911.0" y="81.0"/>
      <point x="911.0" y="320.0" type="curve" smooth="yes"/>
      <point x="911.0" y="449.0"/>
      <point x="865" y="567"/>
      <point x="680" y="672" type="curve" smooth="yes"/>
      <point x="436.0" y="811.0" type="line" smooth="yes"/>
      <point x="373" y="847"/>
      <point x="355.0" y="901.0"/>
      <point x="355.0" y="932.0" type="curve" smooth="yes"/>
      <point x="355.0" y="973.0"/>
      <point x="383" y="1043"/>
      <point x="486" y="1043" type="curve" smooth="yes"/>
      <point x="612" y="1043"/>
      <point x="855" y="959"/>
      <point x="855" y="959" type="curve"/>
      <point x="855" y="1196" type="line" smooth="yes"/>
      <point x="855" y="1202"/>
      <point x="674" y="1277"/>
      <point x="475" y="1277" type="curve" smooth="yes"/>
      <point x="226" y="1277"/>
      <point x="60" y="1111"/>
      <point x="60" y="928" type="curve" smooth="yes"/>
      <point x="60" y="822"/>
      <point x="107" y="701"/>
      <point x="248" y="615" type="curve" smooth="yes"/>
      <point x="533.0" y="442.0" type="line" smooth="yes"/>
      <point x="627" y="385"/>
      <point x="624.0" y="348.0"/>
      <point x="624.0" y="316.0" type="curve" smooth="yes"/>
      <point x="624.0" y="254.0"/>
      <point x="590" y="195"/>
      <point x="512" y="195" type="curve" smooth="yes"/>
      <point x="376" y="195"/>
      <point x="88" y="313"/>
      <point x="87" y="313" type="curve"/>
    </contour>
  </outline>
</glyph>
<glyph name="asterisk" format="1">
  <advance width="1307"/>
  <unicode hex="002A"/>
  <outline>
    <contour>
      <point x="755" y="467" type="line"/>
      <point x="880" y="575" type="line"/>
      <point x="642" y="818" type="line"/>
      <point x="957" y="923" type="line"/>
      <point x="895" y="1068" type="line"/>
      <point x="602" y="929" type="line"/>
      <point x="626" y="1270" type="line"/>
      <point x="457" y="1270" type="line"/>
      <point x="481" y="929" type="line"/>
      <point x="188" y="1068" type="line"/>
      <point x="126" y="923" type="line"/>
      <point x="441" y="818" type="line"/>
      <point x="203" y="575" type="line"/>
      <point x="328" y="467" type="line"/>
      <point x="541.5" y="747.343" type="line"/>
    </contour>
  </outline>
</glyph>
<glyph name="comma" format="1">
  <advance width="543"/>
  <unicode hex="002C"/>
  <outline>
    <contour>
      <point x="116" y="-200" type="curve"/>
      <point x="207" y="-200" type="line"/>
      <point x="376" y="-57"/>
      <point x="440" y="57"/>
      <point x="440" y="149" type="curve" smooth="yes"/>
      <point x="440" y="229"/>
      <point x="379" y="314"/>
      <point x="272" y="314" type="curve" smooth="yes"/>
      <point x="165" y="314"/>
      <point x="103" y="230"/>
      <point x="103" y="149" type="curve" smooth="yes"/>
      <point x="103" y="74"/>
      <point x="153" y="2"/>
      <point x="239" y="-13" type="curve"/>
      <point x="215" y="-77"/>
      <point x="165" y="-137"/>
    </contour>
  </outline>
</glyph>
<glyph name="slash" format="1">
  <advance width="0"/>
  <unicode hex="002F"/>
  <outline>
    <contour>
      <point x="682.0" y="1241.0" type="line"/>
      <point x="137.0" y="0.0" type="line"/>
      <point x="398" y="0" type="line"/>
      <point x="945" y="1241" type="line"/>
    </contour>
  </outline>
</glyph>
<glyph name="two" format="1">
  <advance width="1004"/>
  <unicode hex="0032"/>
  <outline>
    <contour>
      <point x="4" y="0" type="curve"/>
      <point x="871" y="0" type="line"/>
      <point x="871" y="253" type="line"/>
      <point x="525" y="253" type="line"/>
      <point x="698" y="482" type="line" smooth="yes"/>
      <point x="806" y="625"/>
      <point x="880" y="771"/>
      <point x="880" y="898" type="curve" smooth="yes"/>
      <point x="880" y="1111"/>
      <point x="743" y="1276"/>
      <point x="484" y="1276" type="curve" smooth="yes"/>
      <point x="296" y="1276"/>
      <point x="92" y="1138"/>
      <point x="92" y="1138" type="curve"/>
      <point x="187" y="923" type="line"/>
      <point x="187" y="923"/>
      <point x="340" y="1017"/>
      <point x="449" y="1017" type="curve" smooth="yes"/>
      <point x="526" y="1017"/>
      <point x="579" y="974"/>
      <point x="579" y="896" type="curve" smooth="yes"/>
      <point x="579" y="839"/>
      <point x="550" y="763"/>
      <point x="483" y="672" type="curve"/>
      <point x="483" y="672"/>
      <point x="4" y="0"/>
    </contour>
  </outline>
</glyph>
<glyph name="three" format="1">
  <advance width="1009"/>
  <unicode hex="0033"/>
  <outline>
    <contour>
      <point x="508.0" y="-36.0" type="curve" smooth="yes"/>
      <point x="770.0" y="-36.0"/>
      <point x="933" y="118"/>
      <point x="933" y="311" type="curve" smooth="yes"/>
      <point x="933" y="490"/>
      <point x="843" y="589"/>
      <point x="693" y="656" type="curve"/>
      <point x="825" y="710"/>
      <point x="896.0" y="812.0"/>
      <point x="896.0" y="929.0" type="curve" smooth="yes"/>
      <point x="896.0" y="1127.0"/>
      <point x="737.0" y="1276.0"/>
      <point x="509.0" y="1276.0" type="curve" smooth="yes"/>
      <point x="375.0" y="1276.0"/>
      <point x="189.0" y="1239.0"/>
      <point x="79.0" y="1168.0" type="curve"/>
      <point x="150.0" y="952.0" type="line"/>
      <point x="278.0" y="1007.0"/>
      <point x="384.0" y="1025.0"/>
      <point x="452.0" y="1025.0" type="curve" smooth="yes"/>
      <point x="574.0" y="1025.0"/>
      <point x="611.0" y="957.0"/>
      <point x="611.0" y="901.0" type="curve" smooth="yes"/>
      <point x="611.0" y="819.0"/>
      <point x="518" y="738"/>
      <point x="295" y="688" type="curve" smooth="yes"/>
      <point x="295" y="688"/>
      <point x="295" y="575"/>
      <point x="295" y="575" type="curve" smooth="yes"/>
      <point x="498" y="522"/>
      <point x="625" y="479"/>
      <point x="625.0" y="358.0" type="curve"/>
      <point x="625.0" y="263.0"/>
      <point x="543.0" y="215.0"/>
      <point x="456.0" y="215.0" type="curve" smooth="yes"/>
      <point x="346.0" y="215.0"/>
      <point x="242.0" y="237.0"/>
      <point x="152.0" y="282.0" type="curve"/>
      <point x="93.0" y="50.0" type="line"/>
      <point x="93.0" y="50.0"/>
      <point x="279.0" y="-36.0"/>
    </contour>
  </outline>
</glyph>
<glyph name="five" format="1">
  <advance width="1026"/>
  <unicode hex="0035"/>
  <outline>
    <contour>
      <point x="524.0" y="-36.0" type="curve" smooth="yes"/>
      <point x="882.0" y="-36.0"/>
      <point x="956.0" y="197.0"/>
      <point x="956.0" y="338.0" type="curve" smooth="yes"/>
      <point x="956.0" y="616.0"/>
      <point x="784.0" y="771.0"/>
      <point x="559.0" y="771.0" type="curve" smooth="yes"/>
      <point x="513.0" y="771.0"/>
      <point x="450.0" y="755.0"/>
      <point x="403.0" y="744.0" type="curve"/>
      <point x="406.0" y="839.0"/>
      <point x="405.0" y="914.0"/>
      <point x="409.0" y="1007.0" type="curve"/>
      <point x="854.0" y="1007.0" type="line"/>
      <point x="878.0" y="1242.0" type="line"/>
      <point x="170.0" y="1242.0" type="line"/>
      <point x="153.0" y="540.0" type="line"/>
      <point x="347.0" y="480.0" type="line"/>
      <point x="379.0" y="512.0"/>
      <point x="443" y="536"/>
      <point x="503" y="536" type="curve" smooth="yes"/>
      <point x="585" y="536"/>
      <point x="651" y="475"/>
      <point x="651" y="378" type="curve" smooth="yes"/>
      <point x="651" y="304"/>
      <point x="604" y="228"/>
      <point x="495" y="228" type="curve" smooth="yes"/>
      <point x="364" y="228"/>
      <point x="223.0" y="282.0"/>
      <point x="153.0" y="322.0" type="curve"/>
      <point x="95.0" y="82.0" type="line"/>
      <point x="151.0" y="50.0"/>
      <point x="331.0" y="-36.0"/>
    </contour>
  </outline>
</glyph>
<glyph name="less" format="1">
  <advance width="1026"/>
  <unicode hex="003C"/>
  <outline>
    <contour>
      <point x="62" y="425" type="line"/>
      <point x="62" y="425"/>
      <point x="965" y="-74"/>
      <point x="965" y="-74" type="curve"/>
      <point x="965" y="236" type="line"/>
      <point x="553" y="425" type="line"/>
      <point x="965" y="617" type="line"/>
      <point x="965" y="924" type="line"/>
    </contour>
  </outline>
</glyph>
<glyph name="B" format="1">
  <advance width="1116"/>
  <unicode hex="0042"/>
  <outline>
    <contour>
      <point x="138" y="0" type="line"/>
      <point x="534" y="0" type="line" smooth="yes"/>
      <point x="808" y="0"/>
      <point x="1030" y="120"/>
      <point x="1030" y="380" type="curve" smooth="yes"/>
      <point x="1030" y="564.312011719"/>
      <point x="928.366027832" y="640.236999512"/>
      <point x="812.096008301" y="700.997009277" type="curve"/>
      <point x="892.17199707" y="736.304016113"/>
      <point x="963.0" y="803.581970215"/>
      <point x="963.0" y="920.0" type="curve" smooth="yes"/>
      <point x="963.0" y="1140.0"/>
      <point x="796.5" y="1241.0"/>
      <point x="504.0" y="1241.0" type="curve" smooth="yes"/>
      <point x="138.0" y="1241.0" type="line"/>
    </contour>
    <contour>
      <point x="508.0" y="194.0" type="curve" smooth="yes"/>
      <point x="438.0" y="194.0" type="line"/>
      <point x="438.0" y="597.0" type="line"/>
      <point x="515.0" y="597.0" type="line" smooth="yes"/>
      <point x="655.0" y="597.0"/>
      <point x="746.0" y="508.0"/>
      <point x="746.0" y="393.0" type="curve" smooth="yes"/>
      <point x="746.0" y="290.0"/>
      <point x="678.0" y="194.0"/>
    </contour>
    <contour>
      <point x="479.0" y="1048.0" type="line" smooth="yes"/>
      <point x="649.5" y="1048.0"/>
      <point x="709.0" y="1004.0"/>
      <point x="709.0" y="901.0" type="curve" smooth="yes"/>
      <point x="709.0" y="776.0"/>
      <point x="553.5" y="761.0"/>
      <point x="464.0" y="761.0" type="curve" smooth="yes"/>
      <point x="440.0" y="761.0" type="line"/>
      <point x="440.0" y="1048.0" type="line"/>
    </contour>
  </outline>
</glyph>
<glyph name="E" format="1">
  <advance width="973"/>
  <unicode hex="0045"/>
  <outline>
    <contour>
      <point x="138" y="0" type="line"/>
      <point x="871" y="0" type="line"/>
      <point x="871" y="266" type="line"/>
      <point x="430" y="266" type="line"/>
      <point x="430" y="512" type="line"/>
      <point x="795" y="512" type="line"/>
      <point x="795" y="764" type="line"/>
      <point x="432" y="764" type="line"/>
      <point x="432" y="985" type="line"/>
      <point x="861" y="985" type="line"/>
      <point x="861" y="1241" type="line"/>
      <point x="138" y="1241" type="line"/>
    </contour>
  </outline>
</glyph>
<glyph name="G" format="1">
  <advance width="1416"/>
  <unicode hex="0047"/>
  <outline>
    <contour>
      <point x="74.0" y="622.0" type="curve" smooth="yes"/>
      <point x="74" y="219"/>
      <point x="361" y="-33"/>
      <point x="749" y="-33" type="curve" smooth="yes"/>
      <point x="1012.0300293" y="-33"/>
      <point x="1180.0300293" y="38.6669921875"/>
      <point x="1306.0" y="116.0" type="curve"/>
      <point x="1306.0" y="717.0" type="line"/>
      <point x="749.0" y="717.0" type="line"/>
      <point x="749.0" y="478.0" type="line"/>
      <point x="1019.0" y="478.0" type="line"/>
      <point x="1019.0" y="273.795013428" type="line"/>
      <point x="942.531982422" y="244.395996094"/>
      <point x="860.070007324" y="228.0"/>
      <point x="780.0" y="228.0" type="curve" smooth="yes"/>
      <point x="571.0" y="228.0"/>
      <point x="384.0" y="339.0"/>
      <point x="384.0" y="622.0" type="curve" smooth="yes"/>
      <point x="384.0" y="906.0"/>
      <point x="591.0" y="1014.0"/>
      <point x="800.0" y="1014.0" type="curve" smooth="yes"/>
      <point x="937.0" y="1014.0"/>
      <point x="1081.0" y="966.0"/>
      <point x="1190.0" y="887.0" type="curve"/>
      <point x="1190.0" y="1174.0" type="line"/>
      <point x="1190.0" y="1174.0"/>
      <point x="997.0" y="1275.0"/>
      <point x="769.0" y="1275.0" type="curve" smooth="yes"/>
      <point x="381.0" y="1275.0"/>
      <point x="74.0" y="1026.0"/>
    </contour>
  </outline>
</glyph>
<glyph name="H" format="1">
  <advance width="1313"/>
  <unicode hex="0048"/>
  <outline>
    <contour>
      <point x="1173" y="0" type="line"/>
      <point x="1173" y="1241" type="line"/>
      <point x="865" y="1241" type="line"/>
      <point x="865" y="786" type="line"/>
      <point x="446" y="786" type="line"/>
      <point x="446" y="1241" type="line"/>
      <point x="138" y="1241" type="line"/>
      <point x="138" y="0" type="line"/>
      <point x="446" y="0" type="line"/>
      <point x="446" y="518" type="line"/>
      <point x="865" y="518" type="line"/>
      <point x="865" y="0" type="line"/>
    </contour>
  </outline>
</glyph>
<glyph name="I" format="1">
  <advance width="586"/>
  <unicode hex="0049"/>
  <outline>
    <contour>
      <point x="446" y="0" type="line"/>
      <point x="446" y="1241" type="line"/>
      <point x="138" y="1241" type="line"/>
      <point x="138" y="0" type="line"/>
    </contour>
  </outline>
</glyph>
<glyph name="J" format="1">
  <advance width="988"/>
  <unicode hex="004A"/>
  <outline>
    <contour>
      <point x="369.694000244" y="-30.0339050293" type="curve" smooth="yes"/>
      <point x="698.594970703" y="-30.0339050293"/>
      <point x="857.0" y="145.774993896"/>
      <point x="857.0" y="492.0" type="curve" smooth="yes"/>
      <point x="857.0" y="1241.0" type="line"/>
      <point x="565.0" y="1241.0" type="line"/>
      <point x="565.0" y="505.0" type="line" smooth="yes"/>
      <point x="565.0" y="298.0"/>
      <point x="500.0" y="202.0"/>
      <point x="339.0" y="202.0" type="curve" smooth="yes"/>
      <point x="205.0" y="202.0"/>
      <point x="80.0" y="288.0"/>
      <point x="80.0" y="288.0" type="curve"/>
      <point x="80.0" y="40.0" type="line"/>
      <point x="80.0" y="40.0"/>
      <point x="157.901992798" y="-30.0339050293"/>
    </contour>
  </outline>
</glyph>
<glyph name="K" format="1">
  <advance width="1265"/>
  <unicode hex="004B"/>
  <outline>
    <contour>
      <point x="438" y="702.231994629" type="line"/>
      <point x="438" y="1242.0" type="line"/>
      <point x="138" y="1242.0" type="line"/>
      <point x="138" y="0.0" type="line"/>
      <point x="440" y="0.0" type="line"/>
      <point x="440" y="563.0" type="line"/>
      <point x="442" y="563.0" type="line"/>
      <point x="866" y="0.0" type="line"/>
      <point x="1231" y="0.0" type="line"/>
      <point x="744.526000977" y="634.781005859" type="line"/>
      <point x="1205.0" y="1241.0" type="line"/>
      <point x="851.0" y="1241.0" type="line"/>
      <point x="442.0" y="700.0" type="line"/>
    </contour>
  </outline>
</glyph>
<glyph name="L" format="1">
  <advance width="1009"/>
  <unicode hex="004C"/>
  <outline>
    <contour>
      <point x="138" y="1241" type="line"/>
      <point x="138" y="0" type="line"/>
      <point x="931" y="0" type="line"/>
      <point x="931" y="268" type="line"/>
      <point x="446" y="268" type="line"/>
      <point x="446" y="1241" type="line"/>
    </contour>
  </outline>
</glyph>
<glyph name="M" format="1">
  <advance width="1651"/>
  <unicode hex="004D"/>
  <outline>
    <contour>
      <point x="291" y="1311" type="line"/>
      <point x="66" y="0" type="line"/>
      <point x="350" y="0" type="line"/>
      <point x="443" y="577" type="line"/>
      <point x="826" y="-27" type="line"/>
      <point x="1209" y="577" type="line"/>
      <point x="1301" y="0" type="line"/>
      <point x="1585" y="0" type="line"/>
      <point x="1360" y="1311" type="line"/>
      <point x="826" y="449" type="line"/>
    </contour>
  </outline>
</glyph>
<glyph name="N" format="1">
  <advance width="1343"/>
  <unicode hex="004E"/>
  <outline>
    <contour>
      <point x="1203" y="-58" type="line"/>
      <point x="1203" y="1241" type="line"/>
      <point x="895" y="1241" type="line"/>
      <point x="895" y="603" type="line"/>
      <point x="138" y="1311" type="line"/>
      <point x="138" y="0" type="line"/>
      <point x="446" y="0" type="line"/>
      <point x="446" y="643" type="line"/>
    </contour>
  </outline>
</glyph>
<glyph name="P" format="1">
  <advance width="1063"/>
  <unicode hex="0050"/>
  <outline>
    <contour>
      <point x="440" y="494.989013672" type="line"/>
      <point x="457.415985107" y="494.989013672" type="line" smooth="yes"/>
      <point x="612.784973145" y="494.989013672"/>
      <point x="976.0" y="501.837005615"/>
      <point x="976.0" y="862.0" type="curve" smooth="yes"/>
      <point x="976.0" y="1122.0"/>
      <point x="778.5" y="1242.0"/>
      <point x="504.0" y="1242.0" type="curve" smooth="yes"/>
      <point x="138.0" y="1242.0" type="line"/>
      <point x="138.0" y="0.0" type="line"/>
      <point x="440" y="0" type="line"/>
    </contour>
    <contour>
      <point x="692.0" y="857.0" type="curve" smooth="yes"/>
      <point x="692.0" y="742.0"/>
      <point x="601.5" y="653.0"/>
      <point x="462.0" y="653.0" type="curve" smooth="yes"/>
      <point x="438.0" y="653.0" type="line"/>
      <point x="438.0" y="1048.0" type="line"/>
      <point x="458.0" y="1048.0" type="line" smooth="yes"/>
      <point x="628.5" y="1048.0"/>
      <point x="692.0" y="960.0"/>
    </contour>
  </outline>
</glyph>
<glyph name="R" format="1">
  <advance width="1155"/>
  <unicode hex="0052"/>
  <outline>
    <contour>
      <point x="440" y="0" type="line"/>
      <point x="440" y="522" type="line"/>
      <point x="442" y="522" type="line"/>
      <point x="792" y="0" type="line"/>
      <point x="1136" y="0" type="line"/>
      <point x="720" y="574" type="line"/>
      <point x="890" y="618"/>
      <point x="976" y="741"/>
      <point x="976" y="878" type="curve" smooth="yes"/>
      <point x="976" y="1138"/>
      <point x="755.5" y="1242"/>
      <point x="504.0" y="1242" type="curve" smooth="yes"/>
      <point x="138.0" y="1242" type="line"/>
      <point x="138.0" y="0" type="line"/>
    </contour>
    <contour>
      <point x="458.0" y="1048" type="line" smooth="yes"/>
      <point x="613.0" y="1048"/>
      <point x="692.0" y="976"/>
      <point x="692.0" y="873" type="curve" smooth="yes"/>
      <point x="692.0" y="758"/>
      <point x="581.0" y="675"/>
      <point x="462.0" y="675" type="curve" smooth="yes"/>
      <point x="438.0" y="675" type="line"/>
      <point x="438.0" y="1048" type="line"/>
    </contour>
  </outline>
</glyph>
<glyph name="T" format="1">
  <advance width="1122"/>
  <unicode hex="0054"/>
  <outline>
    <contour>
      <point x="711" y="0" type="line"/>
      <point x="711" y="973" type="line"/>
      <point x="1076" y="973" type="line"/>
      <point x="1076" y="1241" type="line"/>
      <point x="38" y="1241" type="line"/>
      <point x="38" y="973" type="line"/>
      <point x="403" y="973" type="line"/>
      <point x="403" y="0" type="line"/>
    </contour>
  </outline>
</glyph>
<glyph name="U" format="1">
  <advance width="1402"/>
  <unicode hex="0055"/>
  <outline>
    <contour>
      <point x="690" y="-33" type="curve" smooth="yes"/>
      <point x="1007" y="-33"/>
      <point x="1258" y="142"/>
      <point x="1258" y="493" type="curve" smooth="yes"/>
      <point x="1258" y="1241" type="line"/>
      <point x="966" y="1241" type="line"/>
      <point x="966" y="500" type="line" smooth="yes"/>
      <point x="966" y="293"/>
      <point x="851" y="202"/>
      <point x="690" y="202" type="curve" smooth="yes"/>
      <point x="529" y="202"/>
      <point x="414" y="293"/>
      <point x="414" y="500" type="curve" smooth="yes"/>
      <point x="414" y="1241" type="line"/>
      <point x="122" y="1241" type="line"/>
      <point x="122" y="493" type="line" smooth="yes"/>
      <point x="122" y="142"/>
      <point x="373" y="-33"/>
    </contour>
  </outline>
</glyph>
<glyph name="W" format="1">
  <advance width="1757"/>
  <unicode hex="0057"/>
  <outline>
    <contour>
      <point x="1189.90002441" y="624" type="line"/>
      <point x="872.098022461" y="1310.52001953" type="line"/>
      <point x="871.789978027" y="1310.43994141" type="line"/>
      <point x="577.0" y="624.0" type="line"/>
      <point x="319.0" y="1241.0" type="line"/>
      <point x="20.0" y="1241.0" type="line"/>
      <point x="560.0" y="-58.0" type="line"/>
      <point x="881.437988281" y="654.789001465" type="line"/>
      <point x="1212.90002441" y="-58.0" type="line"/>
      <point x="1729.90002441" y="1241.0" type="line"/>
      <point x="1424.90002441" y="1241.0" type="line"/>
    </contour>
  </outline>
</glyph>
<glyph name="X" format="1">
  <advance width="1519"/>
  <unicode hex="0058"/>
  <outline>
    <contour>
      <point x="1462" y="0" type="line"/>
      <point x="414" y="1241" type="line"/>
      <point x="61" y="1241" type="line"/>
      <point x="1100" y="0" type="line"/>
    </contour>
    <contour>
      <point x="429" y="0" type="line"/>
      <point x="1410" y="1241" type="line"/>
      <point x="1043" y="1241" type="line"/>
      <point x="57" y="0" type="line"/>
    </contour>
  </outline>
</glyph>
<glyph name="Y" format="1">
  <advance width="1259"/>
  <unicode hex="0059"/>
  <outline>
    <contour>
      <point x="327" y="1241" type="line"/>
      <point x="18" y="1241" type="line"/>
      <point x="480.100006104" y="462.516967773" type="line"/>
      <point x="480.100006104" y="-3.0517578125e-05" type="line"/>
      <point x="788.099975586" y="-3.0517578125e-05" type="line"/>
      <point x="788.099975586" y="459.199981689" type="line"/>
      <point x="1235.0" y="1240.99996948" type="line"/>
      <point x="920.0" y="1240.99996948" type="line"/>
      <point x="635" y="707" type="line"/>
    </contour>
  </outline>
</glyph>
<glyph name="Z" format="1">
  <advance width="1059"/>
  <unicode hex="005A"/>
  <outline>
    <contour>
      <point x="90.36328125" y="1241" type="line"/>
      <point x="90.36328125" y="973" type="line"/>
      <point x="541.994995117" y="973" type="line"/>
      <point x="65.0" y="0" type="line"/>
      <point x="967.0" y="0" type="line"/>
      <point x="967.0" y="268" type="line"/>
      <point x="526.0" y="268" type="line"/>
      <point x="994" y="1241" type="line"/>
    </contour>
  </outline>
</glyph>
<glyph name="backslash" format="1">
  <advance width="0"/>
  <unicode hex="005C"/>
  <outline>
    <contour>
      <point x="682.0" y="1241.0" type="line"/>
      <point x="137.0" y="0.0" type="line"/>
      <point x="398.0" y="0.0" type="line"/>
      <point x="945.0" y="1241.0" type="line"/>
    </contour>
  </outline>
</glyph>
<glyph name="a" format="1">
  <advance width="995"/>
  <unicode hex="0061"/>
  <outline>
    <contour>
      <point x="423.414001465" y="156.914993286" type="line"/>
      <point x="387.054992676" y="156.915008545"/>
      <point x="359.0" y="190.634017944"/>
      <point x="359.0" y="243.000015259" type="curve" smooth="yes"/>
      <point x="359.0" y="288.583023071"/>
      <point x="405.688995361" y="357.999008179"/>
      <point x="539.0" y="404.145004272" type="curve"/>
      <point x="539.0" y="216.453018188" type="line"/>
      <point x="510.338989258" y="180.970016479"/>
      <point x="462.212005615" y="156.915008545"/>
      <point x="423.414001465" y="156.915008545" type="curve"/>
    </contour>
    <contour>
      <point x="432.157012939" y="676.419036865" type="line" smooth="yes"/>
      <point x="493.006988525" y="676.419036865"/>
      <point x="540.0" y="648.961029053"/>
      <point x="540.0" y="548.644012451" type="curve" smooth="yes"/>
      <point x="540.0" y="529.046051025" type="line"/>
      <point x="441.643005371" y="505.589019775" type="line" smooth="yes"/>
      <point x="211.774993896" y="451.914031982"/>
      <point x="90.0" y="349.992034912"/>
      <point x="90.0" y="229.736022949" type="curve" smooth="yes"/>
      <point x="90.0" y="67.3418273926"/>
      <point x="217.404006958" y="-24.9999694824"/>
      <point x="354.0" y="-24.9999694824" type="curve" smooth="yes"/>
      <point x="431.656005859" y="-24.9999694824"/>
      <point x="537.502990723" y="18.6602325439"/>
      <point x="585.918029785" y="109.047027588" type="curve"/>
      <point x="649.989990234" y="-12.7479705811"/>
      <point x="804.0" y="-17.9999694824"/>
      <point x="846.0" y="-17.9999694824" type="curve" smooth="yes"/>
      <point x="864.0" y="-17.9999694824" type="line"/>
      <point x="943.111022949" y="202.181030273" type="line"/>
      <point x="929.0" y="202.181030273" type="line" smooth="yes"/>
      <point x="851.354980469" y="202.181030273"/>
      <point x="809.719970703" y="228.83203125"/>
      <point x="810.0" y="320.590026855" type="curve" smooth="yes"/>
      <point x="810.0" y="601.543060303" type="line" smooth="yes"/>
      <point x="810.0" y="825.344024658"/>
      <point x="618.515991211" y="904.000030518"/>
      <point x="461.0" y="904.000030518" type="curve" smooth="yes"/>
      <point x="246.832000732" y="904.000030518"/>
      <point x="104.81199646" y="802.95602417"/>
      <point x="95.4462890625" y="793.588043213" type="curve"/>
      <point x="171.540985107" y="581.610015869" type="line"/>
      <point x="213.732971191" y="604.71005249"/>
      <point x="334.645965576" y="676.419036865"/>
      <point x="432.156982422" y="676.419036865" type="curve" smooth="yes"/>
    </contour>
  </outline>
</glyph>
<glyph name="b" format="1">
  <advance width="1113"/>
  <unicode hex="0062"/>
  <outline>
    <contour>
      <point x="490.0" y="191.0" type="curve" smooth="yes"/>
      <point x="464.62701416" y="191"/>
      <point x="440.089996338" y="192.365997314"/>
      <point x="410.0" y="196.399993896" type="curve"/>
      <point x="410.0" y="646.156982422" type="line"/>
      <point x="459.979003906" y="669.284973145"/>
      <point x="507.29800415" y="680.0"/>
      <point x="550.0" y="680.0" type="curve" smooth="yes"/>
      <point x="671.812988281" y="680.0"/>
      <point x="755.0" y="593.406005859"/>
      <point x="755.0" y="453.273010254" type="curve" smooth="yes"/>
      <point x="755.0" y="273.542999268"/>
      <point x="656.280029297" y="191.0"/>
    </contour>
    <contour>
      <point x="533.0" y="-20.0" type="line"/>
      <point x="849.181030273" y="-20.0"/>
      <point x="1025.0" y="162.442001343"/>
      <point x="1025.0" y="475.27897644" type="curve" smooth="yes"/>
      <point x="1025.0" y="716.836959839"/>
      <point x="846.151000977" y="903.999984741"/>
      <point x="623.0" y="903.999984741" type="curve" smooth="yes"/>
      <point x="554.755004883" y="903.999984741"/>
      <point x="483.212005615" y="886.377975464"/>
      <point x="410.0" y="846.223007202" type="curve"/>
      <point x="410.0" y="1277.46995544" type="line"/>
      <point x="135.0" y="1239.71995544" type="line"/>
      <point x="135.0" y="54.6230316162" type="line"/>
      <point x="281.640991211" y="6.19047546387"/>
      <point x="418.102996826" y="-19.9999542236"/>
      <point x="533.0" y="-19.9999542236" type="curve"/>
    </contour>
  </outline>
</glyph>
<glyph name="c" format="1">
  <advance width="966"/>
  <unicode hex="0063"/>
  <outline>
    <contour>
      <point x="70.0" y="439.979003906" type="curve" smooth="yes"/>
      <point x="70.0" y="169.186004639"/>
      <point x="273.121002197" y="-25.0"/>
      <point x="571.0" y="-25.0" type="curve" smooth="yes"/>
      <point x="734.255981445" y="-25.0"/>
      <point x="831.526000977" y="48.5838012695"/>
      <point x="848.0" y="56.8193054199" type="curve"/>
      <point x="848.0" y="295.0" type="line"/>
      <point x="775.315979004" y="255.0"/>
      <point x="721.107971191" y="217.0"/>
      <point x="592.0" y="217.0" type="curve" smooth="yes"/>
      <point x="434.467987061" y="217.0"/>
      <point x="345.0" y="314.345001221"/>
      <point x="345.0" y="440.847991943" type="curve" smooth="yes"/>
      <point x="345.0" y="567.929992676"/>
      <point x="431.12600708" y="658.0"/>
      <point x="580.0" y="658.0" type="curve" smooth="yes"/>
      <point x="741.419006348" y="658.0"/>
      <point x="827.383972168" y="570.828979492"/>
      <point x="848.0" y="553.648986816" type="curve"/>
      <point x="848.0" y="826.351989746" type="line"/>
      <point x="834.822021484" y="835.138977051"/>
      <point x="760.958007812" y="903.0"/>
      <point x="565.0" y="903.0" type="curve" smooth="yes"/>
      <point x="284.25100708" y="903"/>
      <point x="70.0" y="716.854003906"/>
    </contour>
  </outline>
</glyph>
<glyph name="d" format="1">
  <advance width="1099"/>
  <unicode hex="0064"/>
  <outline>
    <contour>
      <point x="545.0" y="680.0" type="curve" smooth="yes"/>
      <point x="587.822021484" y="680"/>
      <point x="633.440002441" y="670.017028809"/>
      <point x="685.0" y="646.156982422" type="curve"/>
      <point x="685.0" y="196.399993896" type="line"/>
      <point x="656.906982422" y="192.634994507"/>
      <point x="630.015014648" y="191.0"/>
      <point x="605.0" y="191.0" type="curve" smooth="yes"/>
      <point x="438.720001221" y="191.0"/>
      <point x="340.0" y="273.542999268"/>
      <point x="340.0" y="453.273010254" type="curve" smooth="yes"/>
      <point x="340.0" y="593.405029297"/>
      <point x="423.186004639" y="680.0"/>
    </contour>
    <contour>
      <point x="960.0" y="54.6572265625" type="line"/>
      <point x="960.0" y="1277.4699707" type="line"/>
      <point x="685.0" y="1239.7199707" type="line"/>
      <point x="685.0" y="846.223022461" type="line"/>
      <point x="613.380981445" y="885.50402832"/>
      <point x="540.166015625" y="904.0"/>
      <point x="472.0" y="904.0" type="curve" smooth="yes"/>
      <point x="248.848999023" y="904.0"/>
      <point x="70.0" y="716.836975098"/>
      <point x="70.0" y="475.278991699" type="curve" smooth="yes"/>
      <point x="70.0" y="162.442016602"/>
      <point x="245.819000244" y="-19.9999847412"/>
      <point x="562.0" y="-19.9999847412" type="curve" smooth="yes"/>
      <point x="676.856018066" y="-19.9999847412"/>
      <point x="813.406982422" y="6.19892883301"/>
      <point x="960.0" y="54.6572113037" type="curve"/>
    </contour>
  </outline>
</glyph>
<glyph name="e" format="1">
  <advance width="1021"/>
  <unicode hex="0065"/>
  <outline>
    <contour>
      <point x="600" y="-27" type="curve" smooth="yes"/>
      <point x="709" y="-27"/>
      <point x="817" y="3"/>
      <point x="907" y="56" type="curve"/>
      <point x="907" y="285" type="line"/>
      <point x="843" y="238"/>
      <point x="740" y="196"/>
      <point x="624" y="196" type="curve"/>
      <point x="500" y="196"/>
      <point x="381" y="243"/>
      <point x="349" y="389" type="curve"/>
      <point x="918" y="389" type="line"/>
      <point x="918" y="456" type="line" smooth="yes"/>
      <point x="918" y="703"/>
      <point x="800" y="903"/>
      <point x="517" y="903" type="curve" smooth="yes"/>
      <point x="253" y="903"/>
      <point x="70" y="693"/>
      <point x="70" y="453" type="curve" smooth="yes"/>
      <point x="70" y="131"/>
      <point x="337" y="-27"/>
    </contour>
    <contour>
      <point x="361" y="566" type="line"/>
      <point x="384" y="648"/>
      <point x="458" y="701"/>
      <point x="545" y="701" type="curve" smooth="yes"/>
      <point x="620" y="701"/>
      <point x="679" y="663"/>
      <point x="691" y="566" type="curve"/>
    </contour>
  </outline>
</glyph>
<glyph name="f" format="1">
  <advance width="767"/>
  <unicode hex="0066"/>
  <outline>
    <contour>
      <point x="183" y="-8" type="line"/>
      <point x="459" y="-8" type="line"/>
      <point x="459" y="638" type="line"/>
      <point x="615" y="638" type="line"/>
      <point x="615" y="884" type="line"/>
      <point x="459" y="884" type="line"/>
      <point x="459" y="892" type="line" smooth="yes"/>
      <point x="459" y="1000.7800293"/>
      <point x="479.316986084" y="1012.0"/>
      <point x="541.0" y="1012.0" type="curve" smooth="yes"/>
      <point x="561.187988281" y="1012.0"/>
      <point x="588.711975098" y="1006.5300293"/>
      <point x="630.148010254" y="988.770996094" type="curve" smooth="yes"/>
      <point x="713.0" y="955.150024414" type="line"/>
      <point x="713.0" y="1227.07995605" type="line"/>
      <point x="672.146972656" y="1241.48999023" type="line" smooth="yes"/>
      <point x="612.997009277" y="1259.84997559"/>
      <point x="559.317993164" y="1269.0"/>
      <point x="508.0" y="1269.0" type="curve" smooth="yes"/>
      <point x="289.220001221" y="1269.0"/>
      <point x="180.0" y="1102.31994629"/>
      <point x="180.0" y="892.0" type="curve" smooth="yes"/>
      <point x="180.0" y="884.0" type="line"/>
      <point x="65.0" y="884.0" type="line"/>
      <point x="65.0" y="663.0" type="line"/>
      <point x="183.0" y="663.0" type="line"/>
    </contour>
  </outline>
</glyph>
<glyph name="g" format="1">
  <advance width="1079"/>
  <unicode hex="0067"/>
  <outline>
    <contour>
      <point x="543.0" y="-393.0" type="curve" smooth="yes"/>
      <point x="738.252990723" y="-393"/>
      <point x="951.0" y="-292.691986084"/>
      <point x="951.0" y="4.0" type="curve" smooth="yes"/>
      <point x="951.0" y="884.0" type="line"/>
      <point x="680.0" y="884.0" type="line"/>
      <point x="680.0" y="820.913024902" type="line"/>
      <point x="631.182983398" y="869.010986328"/>
      <point x="549.411987305" y="901.0"/>
      <point x="494.0" y="901.0" type="curve" smooth="yes"/>
      <point x="269.141998291" y="901.0"/>
      <point x="69.0" y="709.473999023"/>
      <point x="69.0" y="460.687988281" type="curve" smooth="yes"/>
      <point x="69.0" y="245.207992554"/>
      <point x="208.516998291" y="-8.0"/>
      <point x="494.0" y="-8.0" type="curve" smooth="yes"/>
      <point x="585.510009766" y="-8.0"/>
      <point x="663.37097168" y="27.8125"/>
      <point x="700.424987793" y="61.4551086426" type="curve"/>
      <point x="705.679992676" y="42.3739929199"/>
      <point x="709.0" y="23.0137023926"/>
      <point x="709.0" y="7.0" type="curve" smooth="yes"/>
      <point x="709.0" y="-96.1112976074"/>
      <point x="614.427978516" y="-146.0"/>
      <point x="521.0" y="-146.0" type="curve" smooth="yes"/>
      <point x="377.128997803" y="-146.0"/>
      <point x="251.759994507" y="-65.6992034912"/>
      <point x="244.472000122" y="-62.0556945801" type="curve" smooth="yes"/>
      <point x="230.0" y="-54.8193054199" type="line"/>
      <point x="230.0" y="-322.208007812" type="line"/>
      <point x="247.92300415" y="-328.179992676"/>
      <point x="368.983001709" y="-393.0"/>
    </contour>
    <contour>
      <point x="546.0" y="241.0" type="curve" smooth="yes"/>
      <point x="421.877990723" y="241.0"/>
      <point x="349.0" y="315.433013916"/>
      <point x="349.0" y="456.75100708" type="curve" smooth="yes"/>
      <point x="349.0" y="585.29498291"/>
      <point x="448.605010986" y="662.0"/>
      <point x="543.0" y="662.0" type="curve" smooth="yes"/>
      <point x="584.294006348" y="662.0"/>
      <point x="650.859985352" y="646.635009766"/>
      <point x="677.0" y="614.979003906" type="curve"/>
      <point x="677.0" y="269.807006836" type="line"/>
      <point x="630.458984375" y="254.89100647"/>
      <point x="579.651000977" y="241.0"/>
    </contour>
  </outline>
</glyph>
<glyph name="h" format="1">
  <advance width="1181"/>
  <unicode hex="0068"/>
  <outline>
    <contour>
      <point x="138" y="0" type="line"/>
      <point x="420" y="0" type="line"/>
      <point x="420" y="580.859985352" type="line"/>
      <point x="448.00100708" y="635.578979492"/>
      <point x="553.406982422" y="688.0"/>
      <point x="648.0" y="688.0" type="curve" smooth="yes"/>
      <point x="726.281005859" y="688.0"/>
      <point x="784.0" y="654.047973633"/>
      <point x="784.0" y="558.757019043" type="curve" smooth="yes"/>
      <point x="784.0" y="0.0" type="line"/>
      <point x="1066.0" y="0.0" type="line"/>
      <point x="1066.0" y="580.150024414" type="line" smooth="yes"/>
      <point x="1066.0" y="770.744995117"/>
      <point x="913.942993164" y="903.0"/>
      <point x="727.0" y="903.0" type="curve" smooth="yes"/>
      <point x="627.866027832" y="903.0"/>
      <point x="518.700012207" y="866.494995117"/>
      <point x="417.0" y="776.744018555" type="curve"/>
      <point x="417.0" y="1277.43994141" type="line"/>
      <point x="138.0" y="1239.73999023" type="line"/>
    </contour>
  </outline>
</glyph>
<glyph name="i" format="1">
  <advance width="548"/>
  <unicode hex="0069"/>
  <outline>
    <contour>
      <point x="440.0" y="1126.0" type="curve" smooth="yes"/>
      <point x="440.0" y="1205.76000977"/>
      <point x="379.098999023" y="1291.0"/>
      <point x="272.0" y="1291.0" type="curve" smooth="yes"/>
      <point x="165.01499939" y="1291.0"/>
      <point x="103.0" y="1206.85998535"/>
      <point x="103.0" y="1126.0" type="curve" smooth="yes"/>
      <point x="103.0" y="1042.05004883"/>
      <point x="166.18699646" y="961.0"/>
      <point x="272.0" y="961.0" type="curve" smooth="yes"/>
      <point x="377.928009033" y="961"/>
      <point x="440.0" y="1043.15002441"/>
    </contour>
    <contour>
      <point x="408.0" y="0.0" type="line"/>
      <point x="408.0" y="875.0" type="line"/>
      <point x="135.0" y="875.0" type="line"/>
      <point x="135.0" y="0.0" type="line"/>
    </contour>
  </outline>
</glyph>
<glyph name="j" format="1">
  <advance width="577"/>
  <unicode hex="006A"/>
  <outline>
    <contour>
      <point x="299.283996582" y="959.0" type="curve" smooth="yes"/>
      <point x="405.178985596" y="959"/>
      <point x="468.283996582" y="1041.10998535"/>
      <point x="468.283996582" y="1125.0" type="curve" smooth="yes"/>
      <point x="468.283996582" y="1208.06005859"/>
      <point x="404.988006592" y="1288.0"/>
      <point x="299.283996582" y="1288.0" type="curve" smooth="yes"/>
      <point x="196.731994629" y="1288.0"/>
      <point x="129.283996582" y="1209.34997559"/>
      <point x="129.283996582" y="1125.0" type="curve" smooth="yes"/>
      <point x="129.283996582" y="1039.88000488"/>
      <point x="195.526992798" y="959.0"/>
    </contour>
    <contour>
      <point x="42.2842102051" y="-346.0" type="line" smooth="yes"/>
      <point x="381.147003174" y="-346.0"/>
      <point x="438.283996582" y="-146.533996582"/>
      <point x="438.283996582" y="-19.0" type="curve" smooth="yes"/>
      <point x="438.283996582" y="884.0" type="line"/>
      <point x="161.283996582" y="884.0" type="line"/>
      <point x="161.283996582" y="13.6190795898" type="line" smooth="yes"/>
      <point x="161.283996582" y="-84.9727325439"/>
      <point x="153.134002686" y="-104.000030518"/>
      <point x="-1.7158203125" y="-104.000030518" type="curve" smooth="yes"/>
      <point x="-19.0" y="-104.000030518" type="line"/>
      <point x="31.1445007324" y="-346.000030518" type="line"/>
    </contour>
  </outline>
</glyph>
<glyph name="k" format="1">
  <advance width="1121"/>
  <unicode hex="006B"/>
  <outline>
    <contour>
      <point x="413" y="1" type="line"/>
      <point x="413" y="389.460998535" type="line"/>
      <point x="743.627990723" y="1.0" type="line"/>
      <point x="1095.97998047" y="1.0" type="line"/>
      <point x="683.486022949" y="469.50201416" type="line"/>
      <point x="1046.94995117" y="875.0" type="line"/>
      <point x="702.598022461" y="875.0" type="line"/>
      <point x="413.0" y="537.729003906" type="line"/>
      <point x="413.0" y="1276.0" type="line"/>
      <point x="138.0" y="1241.0" type="line"/>
      <point x="138.0" y="1.0" type="line"/>
    </contour>
  </outline>
</glyph>
<glyph name="l" format="1">
  <advance width="720"/>
  <unicode hex="006C"/>
  <outline>
    <contour>
      <point x="496.075012207" y="210.432998657" type="line"/>
      <point x="444.295013428" y="210.433013916"/>
      <point x="403.0" y="228.900009155"/>
      <point x="403.0" y="298.353012085" type="curve" smooth="yes"/>
      <point x="403.0" y="1277.46995544" type="line"/>
      <point x="128.0" y="1239.71995544" type="line"/>
      <point x="128.0" y="270.342025757" type="line" smooth="yes"/>
      <point x="128.0" y="75.4561157227"/>
      <point x="272.509002686" y="-23.9999847412"/>
      <point x="424.0" y="-23.9999847412" type="curve" smooth="yes"/>
      <point x="560.473022461" y="-23.9999847412"/>
      <point x="640.812011719" y="22.225112915"/>
      <point x="652.0" y="27.8193206787" type="curve"/>
      <point x="652.0" y="253.181015015" type="line"/>
      <point x="621.12902832" y="237.744018555"/>
      <point x="561.482971191" y="210.433013916"/>
      <point x="496.075012207" y="210.433013916" type="curve"/>
    </contour>
  </outline>
</glyph>
<glyph name="m" format="1">
  <advance width="1633"/>
  <unicode hex="006D"/>
  <outline>
    <contour>
      <point x="123" y="-8" type="line"/>
      <point x="398" y="-8" type="line"/>
      <point x="398" y="580.645996094" type="line"/>
      <point x="451.350006104" y="651.395996094"/>
      <point x="516.708984375" y="680.0"/>
      <point x="583.0" y="680.0" type="curve" smooth="yes"/>
      <point x="627.833007812" y="680.0"/>
      <point x="679.0" y="655.043029785"/>
      <point x="679.0" y="558.531005859" type="curve" smooth="yes"/>
      <point x="679.0" y="-8.0" type="line"/>
      <point x="951.0" y="-8.0" type="line"/>
      <point x="951.0" y="584.104003906" type="line"/>
      <point x="996.755004883" y="635.161987305"/>
      <point x="1078.0300293" y="680.0"/>
      <point x="1149.0" y="680.0" type="curve" smooth="yes"/>
      <point x="1212.94995117" y="680.0"/>
      <point x="1241.0" y="617.799987793"/>
      <point x="1241.0" y="547.84197998" type="curve" smooth="yes"/>
      <point x="1241.0" y="-8.0" type="line"/>
      <point x="1516.0" y="-8.0" type="line"/>
      <point x="1516.0" y="567.354003906" type="line" smooth="yes"/>
      <point x="1516.0" y="797.968017578"/>
      <point x="1359.47998047" y="902.0"/>
      <point x="1187.0" y="902.0" type="curve" smooth="yes"/>
      <point x="1145.70996094" y="902.0"/>
      <point x="1011.85998535" y="896.473022461"/>
      <point x="889.606994629" y="770.299987793" type="curve"/>
      <point x="842.059997559" y="844.24798584"/>
      <point x="775.791992188" y="901.0"/>
      <point x="661.0" y="901.0" type="curve" smooth="yes"/>
      <point x="609.758972168" y="901.0"/>
      <point x="484.54598999" y="894.413024902"/>
      <point x="395.0" y="785.258972168" type="curve"/>
      <point x="395.0" y="884.0" type="line"/>
      <point x="123.0" y="884.0" type="line"/>
    </contour>
  </outline>
</glyph>
<glyph name="n" format="1">
  <advance width="1166"/>
  <unicode hex="006E"/>
  <outline>
    <contour>
      <point x="122" y="0" type="line"/>
      <point x="404" y="0" type="line"/>
      <point x="404" y="580.859985352" type="line"/>
      <point x="432.00100708" y="635.578979492"/>
      <point x="537.406982422" y="688.0"/>
      <point x="632.0" y="688.0" type="curve" smooth="yes"/>
      <point x="710.281005859" y="688.0"/>
      <point x="768.0" y="654.047973633"/>
      <point x="768.0" y="558.757019043" type="curve" smooth="yes"/>
      <point x="768.0" y="0.0" type="line"/>
      <point x="1050.0" y="0.0" type="line"/>
      <point x="1050.0" y="580.150024414" type="line" smooth="yes"/>
      <point x="1050.0" y="770.744995117"/>
      <point x="897.942993164" y="903.0"/>
      <point x="711.0" y="903.0" type="curve" smooth="yes"/>
      <point x="611.866027832" y="903.0"/>
      <point x="502.700012207" y="866.494995117"/>
      <point x="401.0" y="776.744018555" type="curve"/>
      <point x="401.0" y="875.0" type="line"/>
      <point x="122.0" y="875.0" type="line"/>
    </contour>
  </outline>
</glyph>
<glyph name="o" format="1">
  <advance width="1146.0"/>
  <unicode hex="006F"/>
  <outline>
    <contour>
      <point x="1067.0" y="440.958007812" type="curve" smooth="yes"/>
      <point x="1067.0" y="161.111999512"/>
      <point x="847.773986816" y="-25.0"/>
      <point x="573.0" y="-25.0" type="curve" smooth="yes"/>
      <point x="298.226013184" y="-25.0"/>
      <point x="79.0" y="161.111999512"/>
      <point x="79.0" y="440.958007812" type="curve" smooth="yes"/>
      <point x="79.0" y="718.916992188"/>
      <point x="298.305999756" y="903.0"/>
      <point x="573.0" y="903.0" type="curve" smooth="yes"/>
      <point x="847.693969727" y="903.0"/>
      <point x="1067.0" y="718.916992188"/>
    </contour>
    <contour>
      <point x="573.0" y="201.0" type="curve" smooth="yes"/>
      <point x="722.138977051" y="201.0"/>
      <point x="799.0" y="317.768005371"/>
      <point x="799.0" y="439.0" type="curve" smooth="yes"/>
      <point x="799.0" y="558.406982422"/>
      <point x="724.060974121" y="677.0"/>
      <point x="573.0" y="677.0" type="curve" smooth="yes"/>
      <point x="421.938995361" y="677.0"/>
      <point x="347.0" y="558.406982422"/>
      <point x="347.0" y="439.0" type="curve" smooth="yes"/>
      <point x="347.0" y="317.768005371"/>
      <point x="423.860992432" y="201.0"/>
    </contour>
  </outline>
</glyph>
<glyph name="p" format="1">
  <advance width="1101"/>
  <unicode hex="0070"/>
  <outline>
    <contour>
      <point x="525.0" y="212.0" type="curve" smooth="yes"/>
      <point x="465.787994385" y="212"/>
      <point x="423.433990479" y="228.270996094"/>
      <point x="398.0" y="240.694000244" type="curve"/>
      <point x="398.0" y="604.072998047" type="line"/>
      <point x="425.997009277" y="619.559997559"/>
      <point x="477.316009521" y="642.0"/>
      <point x="543.0" y="642.0" type="curve" smooth="yes"/>
      <point x="664.783996582" y="642.0"/>
      <point x="724.0" y="561.82598877"/>
      <point x="724.0" y="456.622009277" type="curve" smooth="yes"/>
      <point x="724.0" y="329.984008789"/>
      <point x="653.958984375" y="212.0"/>
    </contour>
    <contour>
      <point x="122.0" y="-364.0" type="line"/>
      <point x="398.0" y="-364.0" type="line"/>
      <point x="398.0" y="-1.466796875" type="line"/>
      <point x="436.536010742" y="-15.1405944824"/>
      <point x="486.644012451" y="-26.0"/>
      <point x="545.0" y="-26.0" type="curve" smooth="yes"/>
      <point x="847.659973145" y="-26.0"/>
      <point x="1012.0" y="222.526992798"/>
      <point x="1012.0" y="450.769012451" type="curve" smooth="yes"/>
      <point x="1012.0" y="693.914001465"/>
      <point x="866.210998535" y="906.0"/>
      <point x="620.0" y="906.0" type="curve" smooth="yes"/>
      <point x="512.543029785" y="906.0"/>
      <point x="435.040008545" y="849.91998291"/>
      <point x="398.0" y="816.0" type="curve"/>
      <point x="398.0" y="884.0" type="line"/>
      <point x="122.0" y="884.0" type="line"/>
    </contour>
  </outline>
</glyph>
<glyph name="q" format="1">
  <advance width="1077"/>
  <unicode hex="0071"/>
  <outline>
    <contour>
      <point x="578.0" y="231.0" type="curve" smooth="yes"/>
      <point x="440.158996582" y="231"/>
      <point x="355.0" y="338.631011963"/>
      <point x="355.0" y="444.770996094" type="curve" smooth="yes"/>
      <point x="355.0" y="578.531005859"/>
      <point x="444.735992432" y="649.0"/>
      <point x="540.0" y="649.0" type="curve" smooth="yes"/>
      <point x="579.835021973" y="649.0"/>
      <point x="623.109985352" y="639.263977051"/>
      <point x="673.0" y="615.481018066" type="curve"/>
      <point x="673.0" y="245.945007324" type="line"/>
      <point x="655.461975098" y="239.417999268"/>
      <point x="623.306030273" y="231.0"/>
    </contour>
    <contour>
      <point x="673.0" y="-364.0" type="line"/>
      <point x="948.0" y="-364.0" type="line"/>
      <point x="948.0" y="884.0" type="line"/>
      <point x="673.0" y="884.0" type="line"/>
      <point x="673.0" y="854.534973145" type="line"/>
      <point x="618.679016113" y="885.008972168"/>
      <point x="560.887023926" y="901.0"/>
      <point x="505.0" y="901.0" type="curve" smooth="yes"/>
      <point x="271.303009033" y="901.0"/>
      <point x="68.0" y="709.460998535"/>
      <point x="68.0" y="453.651000977" type="curve" smooth="yes"/>
      <point x="68.0" y="220.003997803"/>
      <point x="244.912994385" y="-26.0"/>
      <point x="567.0" y="-26.0" type="curve" smooth="yes"/>
      <point x="607.87097168" y="-26.0"/>
      <point x="644.000976562" y="-17.6338043213"/>
      <point x="673.0" y="-7.4365234375" type="curve"/>
    </contour>
  </outline>
</glyph>
<glyph name="r" format="1">
  <advance width="896"/>
  <unicode hex="0072"/>
  <outline>
    <contour>
      <point x="707.401000977" y="521.008972168" type="curve"/>
      <point x="832.151977539" y="744.247009277" type="line"/>
      <point x="756.461975098" y="831.565002441"/>
      <point x="685.163024902" y="881.0"/>
      <point x="603.0" y="881.0" type="curve" smooth="yes"/>
      <point x="530.531005859" y="881.0"/>
      <point x="442.846008301" y="818.372009277"/>
      <point x="395.0" y="739.528991699" type="curve"/>
      <point x="395.0" y="876.0" type="line"/>
      <point x="122.0" y="876.0" type="line"/>
      <point x="122.0" y="0.0" type="line"/>
      <point x="395.0" y="0.0" type="line"/>
      <point x="395.0" y="365.122009277" type="line" smooth="yes"/>
      <point x="395.0" y="535.20501709"/>
      <point x="473.411010742" y="614.797973633"/>
      <point x="555.880981445" y="614.797973633" type="curve" smooth="yes"/>
      <point x="609.416992188" y="614.797973633"/>
      <point x="662.885986328" y="577.770019531"/>
    </contour>
  </outline>
</glyph>
<glyph name="s" format="1">
  <advance width="846"/>
  <unicode hex="0073"/>
  <outline>
    <contour>
      <point x="678.624023438" y="619.903991699" type="curve"/>
      <point x="731.989990234" y="823.362976074" type="line"/>
      <point x="721.177001953" y="830.572021484"/>
      <point x="600.047973633" y="904.0"/>
      <point x="418.507995605" y="904.0" type="curve" smooth="yes"/>
      <point x="220.501998901" y="904.0"/>
      <point x="108.363998413" y="778.015014648"/>
      <point x="108.363998413" y="643.749023438" type="curve" smooth="yes"/>
      <point x="108.363998413" y="557.280029297"/>
      <point x="155.050003052" y="468.601989746"/>
      <point x="252.199996948" y="409.42401123" type="curve" smooth="yes"/>
      <point x="450.200012207" y="288.812988281" type="line" smooth="yes"/>
      <point x="478.863006592" y="271.42199707"/>
      <point x="491.553009033" y="249.604003906"/>
      <point x="491.553009033" y="233.363006592" type="curve" smooth="yes"/>
      <point x="491.553009033" y="205.535995483"/>
      <point x="469.670013428" y="192.313995361"/>
      <point x="425.058990479" y="192.313995361" type="curve" smooth="yes"/>
      <point x="338.713012695" y="192.313995361"/>
      <point x="200.315994263" y="250.623001099"/>
      <point x="110.554992676" y="312.651000977" type="curve"/>
      <point x="84.0" y="91.3652038574" type="line"/>
      <point x="91.4775085449" y="83.887802124"/>
      <point x="220.106002808" y="-25.0"/>
      <point x="450.507995605" y="-25.0" type="curve" smooth="yes"/>
      <point x="646.447021484" y="-25.0"/>
      <point x="755.82800293" y="103.774993896"/>
      <point x="755.82800293" y="236.404006958" type="curve" smooth="yes"/>
      <point x="755.82800293" y="320.859008789"/>
      <point x="709.710998535" y="403.087005615"/>
      <point x="619.890014648" y="458.875" type="curve" smooth="yes"/>
      <point x="406.890014648" y="591.169006348" type="line" smooth="yes"/>
      <point x="384.246002197" y="605.231994629"/>
      <point x="367.779998779" y="630.163024902"/>
      <point x="367.779998779" y="649.632019043" type="curve" smooth="yes"/>
      <point x="367.779998779" y="668.354003906"/>
      <point x="382.265991211" y="689.0"/>
      <point x="442.507995605" y="689.0" type="curve" smooth="yes"/>
      <point x="539.929992676" y="689.0"/>
      <point x="660.976989746" y="631.668029785"/>
    </contour>
  </outline>
</glyph>
<glyph name="t" format="1">
  <advance width="833"/>
  <unicode hex="0074"/>
  <outline>
    <contour>
      <point x="743.405029297" y="268" type="line"/>
      <point x="707.390014648" y="252.746994019"/>
      <point x="603.827026367" y="206.729003906"/>
      <point x="525.609008789" y="206.729003906" type="curve" smooth="yes"/>
      <point x="472.070007324" y="206.729003906"/>
      <point x="430.404998779" y="228.289993286"/>
      <point x="430.404998779" y="296.033996582" type="curve" smooth="yes"/>
      <point x="430.404998779" y="660.0" type="line"/>
      <point x="698.405029297" y="660.0" type="line"/>
      <point x="698.405029297" y="875.0" type="line"/>
      <point x="430.404998779" y="875.0" type="line"/>
      <point x="430.404998779" y="1136.0" type="line"/>
      <point x="67.6133117676" y="762.400024414" type="line" smooth="yes"/>
      <point x="49.4023284912" y="745.234008789"/>
      <point x="41.0000305176" y="726.533996582"/>
      <point x="41.0000305176" y="709.867004395" type="curve" smooth="yes"/>
      <point x="41.0000305176" y="682.114013672"/>
      <point x="64.2998352051" y="660.0"/>
      <point x="104.405029297" y="660.0" type="curve" smooth="yes"/>
      <point x="160.405029297" y="660.0" type="line"/>
      <point x="160.405029297" y="220.804992676" type="line" smooth="yes"/>
      <point x="160.405029297" y="60.8105010986"/>
      <point x="314.391021729" y="-26.0"/>
      <point x="464.405029297" y="-26.0" type="curve" smooth="yes"/>
      <point x="642.043060303" y="-26.0"/>
      <point x="737.064056396" y="52.5166015625"/>
      <point x="743.405059814" y="58.8573913574" type="curve"/>
    </contour>
  </outline>
</glyph>
<glyph name="u" format="1">
  <advance width="1152"/>
  <unicode hex="0075"/>
  <outline>
    <contour>
      <point x="1026" y="875" type="line"/>
      <point x="744" y="875" type="line"/>
      <point x="744" y="294.130981445" type="line"/>
      <point x="715.934020996" y="238.906967163"/>
      <point x="620.289001465" y="186.999969482"/>
      <point x="526.0" y="186.999969482" type="curve" smooth="yes"/>
      <point x="447.718994141" y="186.999969482"/>
      <point x="390.0" y="220.951965332"/>
      <point x="390.0" y="316.242980957" type="curve" smooth="yes"/>
      <point x="390.0" y="874.999938965" type="line"/>
      <point x="108.0" y="874.999938965" type="line"/>
      <point x="108.0" y="294.849914551" type="line" smooth="yes"/>
      <point x="108.0" y="104.25491333"/>
      <point x="260.057006836" y="-28.0000915527"/>
      <point x="447.0" y="-28.0000915527" type="curve" smooth="yes"/>
      <point x="546.229003906" y="-28.0000915527"/>
      <point x="645.99597168" y="8.32217407227"/>
      <point x="747.0" y="98.182510376" type="curve"/>
      <point x="747.0" y="-9.1552734375e-05" type="line"/>
      <point x="1026.0" y="-9.1552734375e-05" type="line"/>
    </contour>
  </outline>
</glyph>
<glyph name="v" format="1">
  <advance width="1082"/>
  <unicode hex="0076"/>
  <outline>
    <contour>
      <point x="1028.15002441" y="884" type="line"/>
      <point x="718.239990234" y="884" type="line"/>
      <point x="528.979980469" y="403.12600708" type="line"/>
      <point x="336.822998047" y="884.0" type="line"/>
      <point x="30.0" y="884.0" type="line"/>
      <point x="477.820007324" y="-8.0" type="line"/>
      <point x="577.263000488" y="-8" type="line"/>
    </contour>
  </outline>
</glyph>
<glyph name="w" format="1">
  <advance width="1395"/>
  <unicode hex="0077"/>
  <outline>
    <contour>
      <point x="690.101013184" y="554.843017578" type="line"/>
      <point x="894.155029297" y="-8.0" type="line"/>
      <point x="1008.22998047" y="-8.0" type="line"/>
      <point x="1332.32995605" y="884.0" type="line"/>
      <point x="1043.5" y="884.0" type="line"/>
      <point x="936.885009766" y="487.726989746" type="line"/>
      <point x="797.244995117" y="884.0" type="line"/>
      <point x="572.002990723" y="884.0" type="line"/>
      <point x="441.458007812" y="499.87701416" type="line"/>
      <point x="341.904998779" y="884.0" type="line"/>
      <point x="39.0" y="884.0" type="line"/>
      <point x="363.106994629" y="-8.0" type="line"/>
      <point x="483.144989014" y="-8" type="line"/>
    </contour>
  </outline>
</glyph>
<glyph name="x" format="1">
  <advance width="1219"/>
  <unicode hex="0078"/>
  <outline>
    <contour>
      <point x="614.679992676" y="280.601013184" type="line"/>
      <point x="842.625" y="-8.0" type="line"/>
      <point x="1173.35998535" y="-8.0" type="line"/>
      <point x="776.604980469" y="440.062011719" type="line"/>
      <point x="1156.89001465" y="884.0" type="line"/>
      <point x="812.50201416" y="884.0" type="line"/>
      <point x="604.323974609" y="609.361022949" type="line"/>
      <point x="388.32699585" y="884.0" type="line"/>
      <point x="56.5751953125" y="884.0" type="line"/>
      <point x="441.324005127" y="449.640991211" type="line"/>
      <point x="48.0" y="-8.0" type="line"/>
      <point x="398.473999023" y="-8" type="line"/>
    </contour>
  </outline>
</glyph>
<glyph name="y" format="1">
  <advance width="1093"/>
  <unicode hex="0079"/>
  <outline>
    <contour>
      <point x="1041.23999023" y="885" type="line"/>
      <point x="741.831970215" y="885" type="line"/>
      <point x="548.960998535" y="487.62701416" type="line"/>
      <point x="350.273986816" y="885.0" type="line"/>
      <point x="25.0" y="885.0" type="line"/>
      <point x="396.865997314" y="235.078979492" type="line"/>
      <point x="170.423995972" y="-244.0" type="line"/>
      <point x="469.286987305" y="-244" type="line"/>
    </contour>
  </outline>
</glyph>
<glyph name="z" format="1">
  <advance width="958"/>
  <unicode hex="007A"/>
  <outline>
    <contour>
      <point x="851.04699707" y="233" type="line"/>
      <point x="476.07901001" y="233" type="line"/>
      <point x="871.45300293" y="789.822998047" type="line"/>
      <point x="828.562011719" y="884.0" type="line"/>
      <point x="115.04699707" y="884.0" type="line"/>
      <point x="115.04699707" y="644.0" type="line"/>
      <point x="470.204986572" y="644.0" type="line"/>
      <point x="76.0" y="78.8544921875" type="line"/>
      <point x="105.839996338" y="-8.0" type="line"/>
      <point x="851.04699707" y="-8" type="line"/>
    </contour>
  </outline>
</glyph>
<glyph name="cent" format="1">
  <advance width="953.0"/>
  <unicode hex="00A2"/>
  <outline>
    <contour>
      <point x="662" y="1044" type="line"/>
      <point x="407" y="-182" type="line"/>
      <point x="502" y="-182" type="line"/>
      <point x="769" y="1044" type="line"/>
    </contour>
    <component base="c"/>
  </outline>
</glyph>
<glyph name="sterling" format="1">
  <advance width="1205"/>
  <unicode hex="00A3"/>
  <outline>
    <contour>
      <point x="847" y="-34" type="curve" smooth="yes"/>
      <point x="1047" y="-34"/>
      <point x="1143" y="97"/>
      <point x="1143" y="302" type="curve"/>
      <point x="910" y="302" type="line"/>
      <point x="910" y="264"/>
      <point x="905" y="195"/>
      <point x="804" y="195" type="curve" smooth="yes"/>
      <point x="747" y="195"/>
      <point x="688" y="212"/>
      <point x="637" y="241" type="curve"/>
      <point x="679" y="309"/>
      <point x="707" y="374"/>
      <point x="707" y="433" type="curve" smooth="yes"/>
      <point x="707" y="466"/>
      <point x="703" y="497"/>
      <point x="695" y="527" type="curve"/>
      <point x="922" y="527" type="line"/>
      <point x="922" y="717" type="line"/>
      <point x="621" y="717" type="line"/>
      <point x="593" y="778"/>
      <point x="568" y="835"/>
      <point x="568" y="889" type="curve" smooth="yes"/>
      <point x="568" y="974"/>
      <point x="641" y="1030"/>
      <point x="734" y="1030" type="curve" smooth="yes"/>
      <point x="847" y="1030"/>
      <point x="900" y="958"/>
      <point x="948" y="915" type="curve"/>
      <point x="1079" y="1118" type="line"/>
      <point x="993" y="1216"/>
      <point x="837" y="1274"/>
      <point x="693" y="1274" type="curve" smooth="yes"/>
      <point x="453" y="1274"/>
      <point x="247" y="1168"/>
      <point x="247" y="924" type="curve" smooth="yes"/>
      <point x="247" y="868"/>
      <point x="277" y="794"/>
      <point x="310" y="717" type="curve"/>
      <point x="206" y="717" type="line"/>
      <point x="206" y="527" type="line"/>
      <point x="381" y="527" type="line"/>
      <point x="390" y="493"/>
      <point x="395" y="458"/>
      <point x="395" y="425" type="curve" smooth="yes"/>
      <point x="395" y="307"/>
      <point x="319" y="169"/>
      <point x="192" y="0" type="curve" smooth="yes"/>
      <point x="464" y="0" type="line" smooth="yes"/>
      <point x="485" y="28"/>
      <point x="505" y="55"/>
      <point x="526" y="83" type="curve"/>
      <point x="627" y="14"/>
      <point x="752" y="-34"/>
    </contour>
  </outline>
</glyph>
<glyph name="paragraph" format="1">
  <advance width="1091.0"/>
  <unicode hex="00B6"/>
  <outline>
    <contour>
      <point x="551" y="1" type="line"/>
      <point x="703.0" y="1.0" type="line"/>
      <point x="703" y="1087" type="line"/>
      <point x="819" y="1087" type="line"/>
      <point x="817" y="1" type="line"/>
      <point x="969.0" y="1.0" type="line"/>
      <point x="969.0" y="1241.0" type="line"/>
      <point x="969.0" y="1241.0"/>
      <point x="607.0" y="1241.0"/>
      <point x="520.0" y="1241.0" type="curve"/>
      <point x="271.0" y="1241.0"/>
      <point x="79.0" y="1216.0"/>
      <point x="79.0" y="903.0" type="curve" smooth="yes"/>
      <point x="79.0" y="645.0"/>
      <point x="288.0" y="572.0"/>
      <point x="511.0" y="572.0" type="curve" smooth="yes"/>
      <point x="579.0" y="572.0"/>
      <point x="551" y="572"/>
      <point x="551" y="572" type="curve"/>
    </contour>
  </outline>
</glyph>
<glyph name="cedilla" format="1">
  <advance width="424"/>
  <unicode hex="00B8"/>
  <outline>
    <contour>
      <point x="260" y="-70" type="line"/>
      <point x="156" y="-100"/>
      <point x="114" y="-152"/>
      <point x="114" y="-203" type="curve" smooth="yes"/>
      <point x="114" y="-280"/>
      <point x="210" y="-356"/>
      <point x="340" y="-356" type="curve"/>
      <point x="379" y="-288" type="line"/>
      <point x="312" y="-268"/>
      <point x="251" y="-220"/>
      <point x="251" y="-180" type="curve" smooth="yes"/>
      <point x="251" y="-153"/>
      <point x="278" y="-129"/>
      <point x="349" y="-120" type="curve"/>
      <point x="349" y="1" type="line"/>
      <point x="260" y="1" type="line"/>
    </contour>
  </outline>
</glyph>
<glyph name="questiondown" format="1">
  <advance width="1094"/>
  <unicode hex="00BF"/>
  <outline>
    <contour>
      <point x="528" y="-387" type="curve" smooth="yes"/>
      <point x="716" y="-387"/>
      <point x="907" y="-259"/>
      <point x="907" y="-259" type="curve"/>
      <point x="812" y="-44" type="line"/>
      <point x="812" y="-44"/>
      <point x="665" y="-128"/>
      <point x="563" y="-128" type="curve" smooth="yes"/>
      <point x="487" y="-128"/>
      <point x="442" y="-84"/>
      <point x="442" y="-6" type="curve" smooth="yes"/>
      <point x="442" y="81"/>
      <point x="493" y="166"/>
      <point x="763" y="476" type="curve"/>
      <point x="763" y="476"/>
      <point x="552" y="476"/>
      <point x="552" y="476" type="curve"/>
      <point x="227" y="222"/>
      <point x="140" y="74"/>
      <point x="140" y="-60" type="curve" smooth="yes"/>
      <point x="140" y="-255"/>
      <point x="278" y="-387"/>
    </contour>
    <component base="period" xScale="-1.0" xyScale="-1.11022302463e-16" yxScale="1.11022302463e-16" yScale="-1.0" xOffset="936" yOffset="889"/>
  </outline>
</glyph>
<glyph name="Agrave" format="1">
  <advance width="1284"/>
  <unicode hex="00C0"/>
  <outline>
    <contour>
      <point x="674.215820312" y="1448.79980469" type="curve" smooth="yes"/>
      <point x="517.215820312" y="1779.79980469" type="line" smooth="yes"/>
      <point x="483.215820312" y="1851.79980469"/>
      <point x="434.215820312" y="1880.79980469"/>
      <point x="392.215820312" y="1880.79980469" type="curve" smooth="yes"/>
      <point x="341.215820312" y="1880.79980469"/>
      <point x="297.215820312" y="1838.79980469"/>
      <point x="297.215820312" y="1781.79980469" type="curve" smooth="yes"/>
      <point x="297.215820312" y="1749.79980469"/>
      <point x="312.215820312" y="1712.79980469"/>
      <point x="346.215820312" y="1675.79980469" type="curve" smooth="yes"/>
      <point x="605.215820312" y="1397.79980469" type="line" smooth="yes"/>
      <point x="618.215820312" y="1383.79980469"/>
      <point x="632.215820312" y="1377.79980469"/>
      <point x="645.215820312" y="1377.79980469" type="curve" smooth="yes"/>
      <point x="665.215820312" y="1377.79980469"/>
      <point x="681.215820312" y="1393.79980469"/>
      <point x="681.215820312" y="1417.79980469" type="curve" smooth="yes"/>
      <point x="681.215820312" y="1426.79980469"/>
      <point x="679.215820312" y="1437.79980469"/>
    </contour>
    <contour>
      <point x="362.0" y="0.0" type="line"/>
      <point x="483.0" y="290.0" type="line"/>
      <point x="803.0" y="290.0" type="line"/>
      <point x="935.0" y="0.0" type="line"/>
      <point x="1254.0" y="0.0" type="line"/>
      <point x="634.0" y="1311.0" type="line"/>
      <point x="37.0" y="0.0" type="line"/>
    </contour>
    <contour>
      <point x="637.0" y="737.0" type="line"/>
      <point x="748.0" y="474.0" type="line"/>
      <point x="536.0" y="474.0" type="line"/>
    </contour>
  </outline>
</glyph>
<glyph name="AE" format="1">
  <advance width="1284"/>
  <unicode hex="00C6"/>
  <outline>
    <contour>
      <point x="37.0" y="0.0" type="line"/>
      <point x="362.0" y="0.0" type="line"/>
      <point x="483.0" y="290.0" type="line"/>
      <point x="703" y="290" type="line"/>
      <point x="705" y="140" type="line"/>
      <point x="889" y="140" type="line"/>
      <point x="634.0" y="1241.0" type="line"/>
    </contour>
    <contour>
      <point x="536.0" y="474.0" type="line"/>
      <point x="637.0" y="737.0" type="line"/>
      <point x="748.0" y="474.0" type="line"/>
    </contour>
    <component base="E" xOffset="496"/>
  </outline>
</glyph>
<glyph name="Eacute" format="1">
  <advance width="973"/>
  <unicode hex="00C9"/>
  <outline>
    <contour>
      <point x="476" y="1448.79980469" type="line" smooth="yes"/>
      <point x="470.666015625" y="1437.5546875"/>
      <point x="468.32421875" y="1427.06738281"/>
      <point x="468.32421875" y="1417.78027344" type="curve" smooth="yes"/>
      <point x="468.32421875" y="1393.48632812"/>
      <point x="484.34765625" y="1377.39746094"/>
      <point x="504.762695312" y="1377.39746094" type="curve" smooth="yes"/>
      <point x="517.411132812" y="1377.39746094"/>
      <point x="531.74609375" y="1383.57324219"/>
      <point x="545.0" y="1397.79980469" type="curve" smooth="yes"/>
      <point x="804.0" y="1675.79980469" type="line" smooth="yes"/>
      <point x="838.452148438" y="1712.77929688"/>
      <point x="852.459960938" y="1749.94921875"/>
      <point x="852.459960938" y="1782.29101562" type="curve" smooth="yes"/>
      <point x="852.459960938" y="1838.97070312"/>
      <point x="809.435546875" y="1880.8203125"/>
      <point x="758.038085938" y="1880.8203125" type="curve" smooth="yes"/>
      <point x="715.556640625" y="1880.8203125"/>
      <point x="667.35546875" y="1852.23242188"/>
      <point x="633.0" y="1779.79980469" type="curve" smooth="yes"/>
    </contour>
    <contour>
      <point x="138.0" y="0.0" type="line"/>
      <point x="871.0" y="0.0" type="line"/>
      <point x="871.0" y="266.0" type="line"/>
      <point x="430.0" y="266.0" type="line"/>
      <point x="430.0" y="512.0" type="line"/>
      <point x="795.0" y="512.0" type="line"/>
      <point x="795.0" y="764.0" type="line"/>
      <point x="432.0" y="764.0" type="line"/>
      <point x="432.0" y="985.0" type="line"/>
      <point x="861.0" y="985.0" type="line"/>
      <point x="861.0" y="1241.0" type="line"/>
      <point x="138.0" y="1241.0" type="line"/>
    </contour>
  </outline>
</glyph>
<glyph name="multiply" format="1">
  <advance width="1009"/>
  <unicode hex="00D7"/>
  <outline>
    <contour>
      <point x="669" y="562" type="line"/>
      <point x="843" y="735" type="line"/>
      <point x="705" y="873" type="line"/>
      <point x="531" y="699" type="line"/>
      <point x="358" y="873" type="line"/>
      <point x="220" y="735" type="line"/>
      <point x="394" y="562" type="line"/>
      <point x="220" y="388" type="line"/>
      <point x="358" y="250" type="line"/>
      <point x="531" y="424" type="line"/>
      <point x="705" y="250" type="line"/>
      <point x="843" y="388" type="line"/>
    </contour>
  </outline>
</glyph>
<glyph name="germandbls" format="1">
  <advance width="1096"/>
  <unicode hex="00DF"/>
  <outline>
    <contour>
      <point x="715" y="-33" type="curve" smooth="yes"/>
      <point x="905" y="-33"/>
      <point x="1051" y="60"/>
      <point x="1051" y="299" type="curve" smooth="yes"/>
      <point x="1051" y="428"/>
      <point x="1017" y="529"/>
      <point x="776" y="680" type="curve"/>
      <point x="900" y="741"/>
      <point x="943" y="823"/>
      <point x="943" y="920" type="curve" smooth="yes"/>
      <point x="943" y="1100"/>
      <point x="800" y="1241"/>
      <point x="507" y="1241" type="curve"/>
      <point x="269" y="1241"/>
      <point x="110" y="1074"/>
      <point x="110" y="889" type="curve" smooth="yes"/>
      <point x="110" y="0" type="line"/>
      <point x="410" y="0" type="line"/>
      <point x="410" y="888" type="line" smooth="yes"/>
      <point x="410" y="963"/>
      <point x="459" y="1030"/>
      <point x="542" y="1030" type="curve"/>
      <point x="630" y="1030"/>
      <point x="689" y="988"/>
      <point x="689" y="901" type="curve" smooth="yes"/>
      <point x="689" y="783"/>
      <point x="591" y="763"/>
      <point x="500" y="761" type="curve"/>
      <point x="500" y="557" type="line"/>
      <point x="682" y="445" type="line" smooth="yes"/>
      <point x="775" y="386"/>
      <point x="776" y="345"/>
      <point x="776" y="313" type="curve" smooth="yes"/>
      <point x="776" y="251"/>
      <point x="738" y="215"/>
      <point x="660" y="215" type="curve" smooth="yes"/>
      <point x="575" y="215"/>
      <point x="468" y="265"/>
      <point x="467" y="265" type="curve"/>
      <point x="467" y="20" type="line" smooth="yes"/>
      <point x="467" y="20"/>
      <point x="541" y="-33"/>
    </contour>
  </outline>
</glyph>
<glyph name="ae" format="1">
  <advance width="1514"/>
  <unicode hex="00E6"/>
  <outline>
    <contour>
      <point x="355" y="-25" type="curve" smooth="yes"/>
      <point x="494" y="-25"/>
      <point x="609" y="51"/>
      <point x="677" y="127" type="curve"/>
      <point x="775" y="24"/>
      <point x="922" y="-27"/>
      <point x="1071" y="-27" type="curve" smooth="yes"/>
      <point x="1180" y="-27"/>
      <point x="1282" y="3"/>
      <point x="1372" y="56" type="curve"/>
      <point x="1372" y="285" type="line"/>
      <point x="1308" y="238"/>
      <point x="1211" y="196"/>
      <point x="1095" y="196" type="curve" smooth="yes"/>
      <point x="971" y="196"/>
      <point x="865" y="243"/>
      <point x="833" y="389" type="curve"/>
      <point x="1383" y="389" type="line"/>
      <point x="1383" y="456" type="line" smooth="yes"/>
      <point x="1383" y="703"/>
      <point x="1271" y="903"/>
      <point x="988" y="903" type="curve" smooth="yes"/>
      <point x="885" y="903"/>
      <point x="774" y="864"/>
      <point x="707" y="803" type="curve"/>
      <point x="647" y="875"/>
      <point x="551" y="904"/>
      <point x="462" y="904" type="curve" smooth="yes"/>
      <point x="248" y="904"/>
      <point x="106" y="803"/>
      <point x="96" y="794" type="curve"/>
      <point x="173" y="582" type="line"/>
      <point x="215" y="605"/>
      <point x="336" y="676"/>
      <point x="433" y="676" type="curve" smooth="yes"/>
      <point x="494" y="676"/>
      <point x="554" y="649"/>
      <point x="554" y="549" type="curve" smooth="yes"/>
      <point x="554" y="529" type="line"/>
      <point x="443" y="506" type="line" smooth="yes"/>
      <point x="213" y="452"/>
      <point x="91" y="350"/>
      <point x="91" y="230" type="curve" smooth="yes"/>
      <point x="91" y="67"/>
      <point x="218" y="-25"/>
    </contour>
    <contour>
      <point x="424" y="157" type="curve" smooth="yes"/>
      <point x="388" y="157"/>
      <point x="360" y="191"/>
      <point x="360" y="243" type="curve" smooth="yes"/>
      <point x="360" y="280"/>
      <point x="390" y="331"/>
      <point x="470" y="374" type="curve" smooth="yes"/>
      <point x="489" y="385"/>
      <point x="530" y="395"/>
      <point x="556" y="404" type="curve"/>
      <point x="561" y="343"/>
      <point x="576" y="288"/>
      <point x="599" y="240" type="curve"/>
      <point x="555" y="201"/>
      <point x="487" y="157"/>
    </contour>
    <contour>
      <point x="845" y="566" type="line"/>
      <point x="868" y="648"/>
      <point x="929" y="701"/>
      <point x="1016" y="701" type="curve" smooth="yes"/>
      <point x="1091" y="701"/>
      <point x="1144" y="663"/>
      <point x="1156" y="566" type="curve"/>
    </contour>
  </outline>
</glyph>
<glyph name="ccedilla" format="1">
  <advance width="966"/>
  <unicode hex="00E7"/>
  <outline>
    <contour>
      <point x="513" y="-77" type="line"/>
      <point x="409" y="-107"/>
      <point x="367" y="-159"/>
      <point x="367" y="-210" type="curve" smooth="yes"/>
      <point x="367" y="-287"/>
      <point x="463" y="-363"/>
      <point x="593" y="-363" type="curve"/>
      <point x="632" y="-295" type="line"/>
      <point x="565" y="-275"/>
      <point x="504" y="-227"/>
      <point x="504" y="-187" type="curve" smooth="yes"/>
      <point x="504" y="-160"/>
      <point x="531" y="-136"/>
      <point x="602" y="-127" type="curve"/>
      <point x="602" y="-6" type="line"/>
      <point x="513" y="-6" type="line"/>
    </contour>
    <contour>
      <point x="70.0" y="439.978515625" type="curve" smooth="yes"/>
      <point x="70.0" y="169.185546875"/>
      <point x="273.12109375" y="-25.0"/>
      <point x="571.0" y="-25.0" type="curve" smooth="yes"/>
      <point x="734.255859375" y="-25.0"/>
      <point x="831.526367188" y="48.583984375"/>
      <point x="848.0" y="56.8193359375" type="curve"/>
      <point x="848.0" y="295.0" type="line"/>
      <point x="775.31640625" y="255.0"/>
      <point x="721.108398438" y="217.0"/>
      <point x="592.0" y="217.0" type="curve" smooth="yes"/>
      <point x="434.467773438" y="217.0"/>
      <point x="345.0" y="314.344726562"/>
      <point x="345.0" y="440.84765625" type="curve" smooth="yes"/>
      <point x="345.0" y="567.9296875"/>
      <point x="431.125976562" y="658.0"/>
      <point x="580.0" y="658.0" type="curve" smooth="yes"/>
      <point x="741.418945312" y="658.0"/>
      <point x="827.383789062" y="570.829101562"/>
      <point x="848.0" y="553.649414062" type="curve"/>
      <point x="848.0" y="826.3515625" type="line"/>
      <point x="834.822265625" y="835.138671875"/>
      <point x="760.958007812" y="903.0"/>
      <point x="565.0" y="903.0" type="curve" smooth="yes"/>
      <point x="284.250976562" y="903"/>
      <point x="70.0" y="716.853515625"/>
    </contour>
  </outline>
</glyph>
<glyph name="egrave" format="1">
  <advance width="1021"/>
  <unicode hex="00E8"/>
  <outline>
    <contour>
      <point x="634.215820312" y="1108.5" type="line" smooth="yes"/>
      <point x="639.215820312" y="1097.5"/>
      <point x="641.215820312" y="1086.5"/>
      <point x="641.215820312" y="1077.5" type="curve" smooth="yes"/>
      <point x="641.215820312" y="1053.5"/>
      <point x="625.215820312" y="1037.5"/>
      <point x="605.215820312" y="1037.5" type="curve" smooth="yes"/>
      <point x="592.215820312" y="1037.5"/>
      <point x="578.215820312" y="1043.5"/>
      <point x="565.215820312" y="1057.5" type="curve" smooth="yes"/>
      <point x="306.215820312" y="1335.5" type="line" smooth="yes"/>
      <point x="272.215820312" y="1372.5"/>
      <point x="257.215820312" y="1409.5"/>
      <point x="257.215820312" y="1441.5" type="curve" smooth="yes"/>
      <point x="257.215820312" y="1498.5"/>
      <point x="301.215820312" y="1540.5"/>
      <point x="352.215820312" y="1540.5" type="curve" smooth="yes"/>
      <point x="394.215820312" y="1540.5"/>
      <point x="443.215820312" y="1511.5"/>
      <point x="477.215820312" y="1439.5" type="curve" smooth="yes"/>
    </contour>
    <contour>
      <point x="360.547851562" y="566.0" type="line"/>
      <point x="383.774414062" y="648.197265625"/>
      <point x="458.19921875" y="701.0"/>
      <point x="545.0" y="701.0" type="curve" smooth="yes"/>
      <point x="619.521484375" y="701.0"/>
      <point x="679.043945312" y="662.875976562"/>
      <point x="691.00390625" y="566.0" type="curve"/>
    </contour>
    <contour>
      <point x="624.0" y="196.0" type="curve" smooth="yes"/>
      <point x="498.927734375" y="196.0"/>
      <point x="380.5" y="242.776367188"/>
      <point x="349.00390625" y="389.0" type="curve"/>
      <point x="918.0" y="389.0" type="line"/>
      <point x="918.0" y="455.702148438" type="line" smooth="yes"/>
      <point x="918.0" y="702.9296875"/>
      <point x="799.797851562" y="903.0"/>
      <point x="517.0" y="903.0" type="curve" smooth="yes"/>
      <point x="253.016601562" y="903.0"/>
      <point x="70.0" y="693.405273438"/>
      <point x="70.0" y="452.684570312" type="curve" smooth="yes"/>
      <point x="70.0" y="130.756835938"/>
      <point x="337.356445312" y="-27.0"/>
      <point x="600.0" y="-27.0" type="curve" smooth="yes"/>
      <point x="709.401367188" y="-27.0"/>
      <point x="817.265625" y="2.677734375"/>
      <point x="907.0" y="56.3271484375" type="curve"/>
      <point x="907.0" y="284.734375" type="line"/>
      <point x="842.87109375" y="237.708007812"/>
      <point x="739.856445312" y="196.0"/>
    </contour>
  </outline>
</glyph>
<glyph name="eth" format="1">
  <advance width="1062"/>
  <unicode hex="00F0"/>
  <outline>
    <contour>
      <point x="518.0" y="-25.0" type="curve" smooth="yes"/>
      <point x="788.0" y="-25.0"/>
      <point x="993.0" y="160.0"/>
      <point x="993.0" y="392.0" type="curve"/>
      <point x="993.0" y="556.0"/>
      <point x="929.0" y="672.0"/>
      <point x="807.0" y="835.0" type="curve" smooth="yes"/>
      <point x="730.0" y="939.0"/>
      <point x="463" y="1241"/>
      <point x="463" y="1241" type="curve"/>
      <point x="150" y="1241" type="line"/>
      <point x="521" y="803" type="line"/>
      <point x="501" y="806"/>
      <point x="472" y="809"/>
      <point x="452" y="809" type="curve" smooth="yes"/>
      <point x="238" y="809"/>
      <point x="47" y="642"/>
      <point x="47" y="400" type="curve" smooth="yes"/>
      <point x="47" y="139"/>
      <point x="262.0" y="-25.0"/>
    </contour>
    <contour>
      <point x="524" y="201" type="curve" smooth="yes"/>
      <point x="394" y="201"/>
      <point x="318" y="298"/>
      <point x="318" y="401" type="curve" smooth="yes"/>
      <point x="318" y="508"/>
      <point x="391" y="600"/>
      <point x="518" y="600" type="curve" smooth="yes"/>
      <point x="650" y="600"/>
      <point x="718" y="497"/>
      <point x="718" y="394" type="curve" smooth="yes"/>
      <point x="718" y="298"/>
      <point x="655" y="201"/>
    </contour>
    <contour>
      <point x="279.0" y="865.0" type="line"/>
      <point x="731.0" y="1177.0" type="line"/>
      <point x="680.0" y="1241.0" type="line"/>
      <point x="228.0" y="929.0" type="line"/>
    </contour>
  </outline>
</glyph>
<glyph name="ograve" format="1">
  <advance width="1146"/>
  <unicode hex="00F2"/>
  <outline>
    <contour>
      <point x="680.215820312" y="1108.5" type="curve" smooth="yes"/>
      <point x="523.215820312" y="1439.5" type="line" smooth="yes"/>
      <point x="489.215820312" y="1511.5"/>
      <point x="440.215820312" y="1540.5"/>
      <point x="398.215820312" y="1540.5" type="curve" smooth="yes"/>
      <point x="347.215820312" y="1540.5"/>
      <point x="303.215820312" y="1498.5"/>
      <point x="303.215820312" y="1441.5" type="curve" smooth="yes"/>
      <point x="303.215820312" y="1409.5"/>
      <point x="318.215820312" y="1372.5"/>
      <point x="352.215820312" y="1335.5" type="curve" smooth="yes"/>
      <point x="611.215820312" y="1057.5" type="line" smooth="yes"/>
      <point x="624.215820312" y="1043.5"/>
      <point x="638.215820312" y="1037.5"/>
      <point x="651.215820312" y="1037.5" type="curve" smooth="yes"/>
      <point x="671.215820312" y="1037.5"/>
      <point x="687.215820312" y="1053.5"/>
      <point x="687.215820312" y="1077.5" type="curve" smooth="yes"/>
      <point x="687.215820312" y="1086.5"/>
      <point x="685.215820312" y="1097.5"/>
    </contour>
    <contour>
      <point x="564.0" y="903.0" type="curve" smooth="yes"/>
      <point x="289.305664062" y="903.0"/>
      <point x="70.0" y="718.916992188"/>
      <point x="70.0" y="440.958007812" type="curve" smooth="yes"/>
      <point x="70.0" y="161.112304688"/>
      <point x="289.225585938" y="-25.0"/>
      <point x="564.0" y="-25.0" type="curve" smooth="yes"/>
      <point x="838.774414062" y="-25.0"/>
      <point x="1058.0" y="161.112304688"/>
      <point x="1058.0" y="440.958007812" type="curve" smooth="yes"/>
      <point x="1058.0" y="718.916992188"/>
      <point x="838.694335938" y="903.0"/>
    </contour>
    <contour>
      <point x="564.0" y="201.0" type="curve" smooth="yes"/>
      <point x="414.861328125" y="201.0"/>
      <point x="338.0" y="317.767578125"/>
      <point x="338.0" y="439.0" type="curve" smooth="yes"/>
      <point x="338.0" y="558.407226562"/>
      <point x="412.939453125" y="677.0"/>
      <point x="564.0" y="677.0" type="curve" smooth="yes"/>
      <point x="715.060546875" y="677.0"/>
      <point x="790.0" y="558.407226562"/>
      <point x="790.0" y="439.0" type="curve" smooth="yes"/>
      <point x="790.0" y="317.767578125"/>
      <point x="713.138671875" y="201.0"/>
    </contour>
  </outline>
</glyph>
<glyph name="ugrave" format="1">
  <advance width="1152"/>
  <unicode hex="00F9"/>
  <outline>
    <contour>
      <point x="681.215820312" y="1108.5" type="line" smooth="yes"/>
      <point x="686.215820312" y="1097.5"/>
      <point x="688.215820312" y="1086.5"/>
      <point x="688.215820312" y="1077.5" type="curve" smooth="yes"/>
      <point x="688.215820312" y="1053.5"/>
      <point x="672.215820312" y="1037.5"/>
      <point x="652.215820312" y="1037.5" type="curve" smooth="yes"/>
      <point x="639.215820312" y="1037.5"/>
      <point x="625.215820312" y="1043.5"/>
      <point x="612.215820312" y="1057.5" type="curve" smooth="yes"/>
      <point x="353.215820312" y="1335.5" type="line" smooth="yes"/>
      <point x="319.215820312" y="1372.5"/>
      <point x="304.215820312" y="1409.5"/>
      <point x="304.215820312" y="1441.5" type="curve" smooth="yes"/>
      <point x="304.215820312" y="1498.5"/>
      <point x="348.215820312" y="1540.5"/>
      <point x="399.215820312" y="1540.5" type="curve" smooth="yes"/>
      <point x="441.215820312" y="1540.5"/>
      <point x="490.215820312" y="1511.5"/>
      <point x="524.215820312" y="1439.5" type="curve" smooth="yes"/>
    </contour>
    <contour>
      <point x="1026.0" y="875.0" type="line"/>
      <point x="744.0" y="875.0" type="line"/>
      <point x="744.0" y="294.130859375" type="line"/>
      <point x="715.93359375" y="238.907226562"/>
      <point x="620.2890625" y="187.0"/>
      <point x="526.0" y="187.0" type="curve" smooth="yes"/>
      <point x="447.71875" y="187.0"/>
      <point x="390.0" y="220.952148438"/>
      <point x="390.0" y="316.243164062" type="curve" smooth="yes"/>
      <point x="390.0" y="875.0" type="line"/>
      <point x="108.0" y="875.0" type="line"/>
      <point x="108.0" y="294.849609375" type="line" smooth="yes"/>
      <point x="108.0" y="104.254882812"/>
      <point x="260.056640625" y="-28.0"/>
      <point x="447.0" y="-28.0" type="curve" smooth="yes"/>
      <point x="546.228515625" y="-28.0"/>
      <point x="645.99609375" y="8.322265625"/>
      <point x="747.0" y="98.1826171875" type="curve"/>
      <point x="747.0" y="0.0" type="line"/>
      <point x="1026.0" y="0.0" type="line"/>
    </contour>
  </outline>
</glyph>
<glyph name="thorn" format="1">
  <advance width="1091"/>
  <unicode hex="00FE"/>
  <outline>
    <contour>
      <point x="122.0" y="-364.0" type="line"/>
      <point x="398.0" y="-364.0" type="line"/>
      <point x="398.0" y="-2.0" type="line"/>
      <point x="398.0" y="-2.0"/>
      <point x="466.0" y="-12.0"/>
      <point x="524.0" y="-12.0" type="curve" smooth="yes"/>
      <point x="827.0" y="-12.0"/>
      <point x="1012.0" y="173.0"/>
      <point x="1012.0" y="451.0" type="curve" smooth="yes"/>
      <point x="1012.0" y="705.0"/>
      <point x="859.0" y="906.0"/>
      <point x="613.0" y="906.0" type="curve" smooth="yes"/>
      <point x="506.0" y="906.0"/>
      <point x="435.0" y="866.0"/>
      <point x="398.0" y="832.0" type="curve"/>
      <point x="398" y="1241" type="line"/>
      <point x="122" y="1241" type="line"/>
    </contour>
    <contour>
      <point x="477.0" y="191.0" type="curve" smooth="yes"/>
      <point x="452.0" y="191.0"/>
      <point x="428.0" y="192.0"/>
      <point x="398.0" y="196.0" type="curve"/>
      <point x="398.0" y="646.0" type="line"/>
      <point x="448.0" y="669.0"/>
      <point x="494.0" y="680.0"/>
      <point x="537.0" y="680.0" type="curve" smooth="yes"/>
      <point x="659.0" y="680.0"/>
      <point x="742.0" y="593.0"/>
      <point x="742.0" y="453.0" type="curve" smooth="yes"/>
      <point x="742.0" y="274.0"/>
      <point x="643.0" y="191.0"/>
    </contour>
  </outline>
</glyph>
<glyph name="aogonek" format="1">
  <advance width="995"/>
  <unicode hex="0105"/>
  <outline>
    <contour>
      <point x="792" y="-7" type="line"/>
      <point x="683" y="-99"/>
      <point x="642" y="-173"/>
      <point x="642" y="-232" type="curve" smooth="yes"/>
      <point x="642" y="-306"/>
      <point x="707" y="-355"/>
      <point x="782" y="-383" type="curve"/>
      <point x="851" y="-325" type="line"/>
      <point x="786" y="-270"/>
      <point x="762" y="-221"/>
      <point x="762" y="-177" type="curve" smooth="yes"/>
      <point x="762" y="-116"/>
      <point x="807" y="-63"/>
      <point x="851" y="-7" type="curve"/>
    </contour>
    <contour>
      <point x="423.4140625" y="156.915039062" type="curve" smooth="yes"/>
      <point x="387.0546875" y="156.915039062"/>
      <point x="359.0" y="190.633789062"/>
      <point x="359.0" y="243.0" type="curve" smooth="yes"/>
      <point x="359.0" y="288.583007812"/>
      <point x="405.689453125" y="357.999023438"/>
      <point x="539.0" y="404.14453125" type="curve"/>
      <point x="539.0" y="216.453125" type="line"/>
      <point x="510.338867188" y="180.969726562"/>
      <point x="462.211914062" y="156.915039062"/>
    </contour>
    <contour>
      <point x="432.157226562" y="676.418945312" type="curve" smooth="yes"/>
      <point x="493.006835938" y="676.418945312"/>
      <point x="540.0" y="648.9609375"/>
      <point x="540.0" y="548.643554688" type="curve" smooth="yes"/>
      <point x="540.0" y="529.045898438" type="line"/>
      <point x="441.642578125" y="505.588867188" type="line" smooth="yes"/>
      <point x="211.775390625" y="451.9140625"/>
      <point x="90.0" y="349.9921875"/>
      <point x="90.0" y="229.736328125" type="curve" smooth="yes"/>
      <point x="90.0" y="67.341796875"/>
      <point x="217.404296875" y="-25.0"/>
      <point x="354.0" y="-25.0" type="curve" smooth="yes"/>
      <point x="431.65625" y="-25.0"/>
      <point x="537.502929688" y="18.66015625"/>
      <point x="585.91796875" y="109.046875" type="curve"/>
      <point x="649.990234375" y="-12.748046875"/>
      <point x="804.0" y="-18.0"/>
      <point x="846.0" y="-18.0" type="curve" smooth="yes"/>
      <point x="864.0" y="-18.0" type="line"/>
      <point x="943.111328125" y="202.180664062" type="line"/>
      <point x="929.0" y="202.180664062" type="line" smooth="yes"/>
      <point x="851.35546875" y="202.180664062"/>
      <point x="809.719726562" y="228.83203125"/>
      <point x="810.0" y="320.58984375" type="curve" smooth="yes"/>
      <point x="810.0" y="601.54296875" type="line" smooth="yes"/>
      <point x="810.0" y="825.34375"/>
      <point x="618.515625" y="904.0"/>
      <point x="461.0" y="904.0" type="curve" smooth="yes"/>
      <point x="246.83203125" y="904.0"/>
      <point x="104.811523438" y="802.956054688"/>
      <point x="95.4462890625" y="793.587890625" type="curve"/>
      <point x="171.541015625" y="581.610351562" type="line"/>
      <point x="213.733398438" y="604.709960938"/>
      <point x="334.646484375" y="676.418945312"/>
    </contour>
  </outline>
</glyph>
<glyph name="dotlessi" format="1">
  <advance width="549"/>
  <unicode hex="0131"/>
  <outline>
    <contour>
      <point x="411.0" y="0.0" type="line"/>
      <point x="411.0" y="876.0" type="line"/>
      <point x="138.0" y="876.0" type="line"/>
      <point x="138.0" y="0.0" type="line"/>
    </contour>
  </outline>
</glyph>
<glyph name="breve" format="1">
  <advance width="953"/>
  <unicode hex="02D8"/>
  <outline>
    <contour>
      <point x="507" y="207" type="curve" smooth="yes"/>
      <point x="625" y="207"/>
      <point x="649.0" y="326.0"/>
      <point x="649.0" y="326.0" type="curve"/>
      <point x="767" y="298" type="line"/>
      <point x="767" y="298"/>
      <point x="745" y="80"/>
      <point x="507" y="80" type="curve" smooth="yes"/>
      <point x="269" y="80"/>
      <point x="247" y="298"/>
      <point x="247" y="298" type="curve"/>
      <point x="365.0" y="326.0" type="line"/>
      <point x="365.0" y="326.0"/>
      <point x="389" y="207"/>
    </contour>
  </outline>
</glyph>
<glyph name="mu" format="1">
  <advance width="1150.0"/>
  <unicode hex="03BC"/>
  <outline>
    <contour>
      <point x="110" y="299" type="line"/>
      <point x="110" y="-248" type="line"/>
      <point x="392" y="-248" type="line"/>
      <point x="392" y="210" type="line"/>
    </contour>
    <component base="u"/>
  </outline>
</glyph>
<glyph name="minus" format="1">
  <advance width="1259"/>
  <unicode hex="2212"/>
  <outline>
    <contour>
      <point x="994" y="481" type="line"/>
      <point x="994" y="649" type="line"/>
      <point x="219" y="649" type="line"/>
      <point x="219" y="481" type="line"/>
    </contour>
  </outline>
</glyph>
<glyph name=".notdef" format="1">
  <advance width="1024"/>
  <outline>
    <contour>
      <point x="102" y="0" type="line"/>
      <point x="922" y="0" type="line"/>
      <point x="922" y="1024" type="line"/>
      <point x="102" y="1024" type="line"/>
    </contour>
    <contour>
      <point x="204" y="102" type="line"/>
      <point x="204" y="922" type="line"/>
      <point x="820" y="922" type="line"/>
      <point x="820" y="102" type="line"/>
    </contour>
  </outline>
</glyph>
